<svg width="288" height="281" viewBox="0 0 288 281" fill="none" xmlns="http://www.w3.org/2000/svg">
<path d="M92.7019 0H90.0667V11.7998H92.7019V0Z" fill="#E0E0E0"/>
<path d="M85.4844 4.58225V7.21753L97.2842 7.21753V4.58225L85.4844 4.58225Z" fill="#E0E0E0"/>
<path d="M157.077 58.1249H153.041V76.2184H157.077V58.1249Z" fill="#E0E0E0"/>
<path d="M146.009 65.1565V69.1931H164.103V65.1565H146.009Z" fill="#E0E0E0"/>
<path d="M205.48 5.45038H202.844V17.2502H205.48V5.45038Z" fill="#E0E0E0"/>
<path d="M198.256 10.0265V12.6617H210.055V10.0265H198.256Z" fill="#E0E0E0"/>
<path d="M265.855 27.2581H261.819V45.3516H265.855V27.2581Z" fill="#E0E0E0"/>
<path d="M254.787 34.2835V38.3201H272.881V34.2835H254.787Z" fill="#E0E0E0"/>
<path d="M286.138 115.245H204.159V266.895H286.138V115.245Z" fill="#F5F5F5"/>
<path d="M276.744 261.86H280.817V175.764H276.744V261.86Z" fill="#E0E0E0"/>
<path d="M269.439 261.86H273.513V175.764H269.439V261.86Z" fill="#E0E0E0"/>
<path d="M262.129 261.86H266.202V175.764H262.129V261.86Z" fill="#E0E0E0"/>
<path d="M254.812 261.86H258.886V175.764H254.812V261.86Z" fill="#E0E0E0"/>
<path d="M247.861 261.86H251.935V175.764H247.861V261.86Z" fill="#E0E0E0"/>
<path d="M240.705 261.86H244.779V175.764H240.705V261.86Z" fill="#E0E0E0"/>
<path d="M233.401 261.86H237.475V175.764H233.401V261.86Z" fill="#E0E0E0"/>
<path d="M225.638 261.86H229.712V175.764H225.638V261.86Z" fill="#E0E0E0"/>
<path d="M218.327 261.86H222.401V175.764H218.327V261.86Z" fill="#E0E0E0"/>
<path d="M211.209 261.86H215.283V175.764H211.209V261.86Z" fill="#E0E0E0"/>
<path d="M276.489 170.592H280.563V125.21H276.489V170.592Z" fill="#E0E0E0"/>
<path d="M269.179 170.592H273.253V125.21H269.179V170.592Z" fill="#E0E0E0"/>
<path d="M261.868 170.592H265.942V125.21H261.868V170.592Z" fill="#E0E0E0"/>
<path d="M254.564 170.592H258.638V125.21H254.564V170.592Z" fill="#E0E0E0"/>
<path d="M247.613 170.592H251.687V125.21H247.613V170.592Z" fill="#E0E0E0"/>
<path d="M240.451 170.592H244.525V125.21H240.451V170.592Z" fill="#E0E0E0"/>
<path d="M233.141 170.592H237.214V125.21H233.141V170.592Z" fill="#E0E0E0"/>
<path d="M224.956 170.592H229.03V125.21H224.956V170.592Z" fill="#E0E0E0"/>
<path d="M217.645 170.592H221.719V125.21H217.645V170.592Z" fill="#E0E0E0"/>
<path d="M210.713 170.592H214.787V125.21H210.713V170.592Z" fill="#E0E0E0"/>
<path d="M202.001 157.044H144.043V266.895H202.001V157.044Z" fill="#F5F5F5"/>
<path d="M192.607 261.86H196.681V175.764H192.607V261.86Z" fill="#E0E0E0"/>
<path d="M185.29 261.86H189.364V175.764H185.29V261.86Z" fill="#E0E0E0"/>
<path d="M177.986 261.86H182.06V175.764H177.986V261.86Z" fill="#E0E0E0"/>
<path d="M170.675 261.86H174.749V175.764H170.675V261.86Z" fill="#E0E0E0"/>
<path d="M163.724 261.86H167.798V175.764H163.724V261.86Z" fill="#E0E0E0"/>
<path d="M156.569 261.86H160.643V175.764H156.569V261.86Z" fill="#E0E0E0"/>
<path d="M149.252 261.86H153.326V175.764H149.252V261.86Z" fill="#E0E0E0"/>
<path d="M192.353 170.592H196.427V162.451H192.353V170.592Z" fill="#E0E0E0"/>
<path d="M185.042 170.592H189.116V162.451H185.042V170.592Z" fill="#E0E0E0"/>
<path d="M177.725 170.592H181.799V162.451H177.725V170.592Z" fill="#E0E0E0"/>
<path d="M170.415 170.592H174.489V162.451H170.415V170.592Z" fill="#E0E0E0"/>
<path d="M163.47 170.592H167.544V162.451H163.47V170.592Z" fill="#E0E0E0"/>
<path d="M156.315 170.592H160.388V162.451H156.315V170.592Z" fill="#E0E0E0"/>
<path d="M149.004 170.592H153.078V162.451H149.004V170.592Z" fill="#E0E0E0"/>
<path d="M204.308 267.614C204.221 267.614 204.146 233.572 204.146 191.594C204.146 149.616 204.221 115.562 204.308 115.562C204.395 115.562 204.469 149.597 204.469 191.594C204.469 233.591 204.401 267.614 204.308 267.614Z" fill="#E0E0E0"/>
<path d="M278.529 67.1717H216.331V115.562H278.529V67.1717Z" fill="#F5F5F5"/>
<path d="M231.442 108.704H235.515V77.4276H231.442V108.704Z" fill="#E0E0E0"/>
<path d="M224.137 108.704H228.211V77.4276H224.137V108.704Z" fill="#E0E0E0"/>
<path d="M246.621 108.704H250.695V77.4276H246.621V108.704Z" fill="#E0E0E0"/>
<path d="M239.31 108.704H243.384V77.4276H239.31V108.704Z" fill="#E0E0E0"/>
<path d="M261.794 108.704H265.868V77.4276H261.794V108.704Z" fill="#E0E0E0"/>
<path d="M254.483 108.704H258.557V77.4276H254.483V108.704Z" fill="#E0E0E0"/>
<path d="M269.669 108.704H273.743V77.4276H269.669V108.704Z" fill="#E0E0E0"/>
<path d="M122.136 168.385H64.179V267.254H122.136V168.385Z" fill="#F5F5F5"/>
<path d="M73.5728 195.097H69.499V263.274H73.5728V195.097Z" fill="#E0E0E0"/>
<path d="M80.8836 195.097H76.8098V263.274H80.8836V195.097Z" fill="#E0E0E0"/>
<path d="M88.1942 195.097H84.1204V263.274H88.1942V195.097Z" fill="#E0E0E0"/>
<path d="M95.5047 195.097H91.4309V263.274H95.5047V195.097Z" fill="#E0E0E0"/>
<path d="M102.456 195.097H98.3818V263.274H102.456V195.097Z" fill="#E0E0E0"/>
<path d="M109.611 195.097H105.537V263.274H109.611V195.097Z" fill="#E0E0E0"/>
<path d="M116.922 195.097H112.848V263.274H116.922V195.097Z" fill="#E0E0E0"/>
<path d="M73.8273 174.555H69.7534V190.999H73.8273V174.555Z" fill="#E0E0E0"/>
<path d="M81.1378 174.555H77.064V190.999H81.1378V174.555Z" fill="#E0E0E0"/>
<path d="M88.4483 174.555H84.3745V190.999H88.4483V174.555Z" fill="#E0E0E0"/>
<path d="M95.7589 174.555H91.6851V190.999H95.7589V174.555Z" fill="#E0E0E0"/>
<path d="M102.71 174.555H98.636V190.999H102.71V174.555Z" fill="#E0E0E0"/>
<path d="M109.865 174.555H105.792V190.999H109.865V174.555Z" fill="#E0E0E0"/>
<path d="M117.176 174.555H113.102V190.999H117.176V174.555Z" fill="#E0E0E0"/>
<path d="M67.2606 78.6367H5.44629V267.254H67.2606V78.6367Z" fill="#F5F5F5"/>
<path d="M44.7772 22.496H29.5918V25.3359H44.7772V22.496Z" fill="#F5F5F5"/>
<path d="M38.3035 0H35.8853V23.3269H38.3035V0Z" fill="#F5F5F5"/>
<path d="M58.6293 25.3359H15.7332V79.5606H58.6293V25.3359Z" fill="#F5F5F5"/>
<path d="M25.338 32.014H21.0781V75.8278H25.338V32.014Z" fill="#E0E0E0"/>
<path d="M32.9774 32.014H28.7175V75.8278H32.9774V32.014Z" fill="#E0E0E0"/>
<path d="M40.6226 32.014H36.3628V75.8278H40.6226V32.014Z" fill="#E0E0E0"/>
<path d="M48.2618 32.014H44.002V75.8278H48.2618V32.014Z" fill="#E0E0E0"/>
<path d="M55.5291 32.014H51.2693V75.8278H55.5291V32.014Z" fill="#E0E0E0"/>
<path d="M15.4665 86.3751H11.1199V259.652H15.4665V86.3751Z" fill="#E0E0E0"/>
<path d="M23.2671 86.3751H18.9204V259.652H23.2671V86.3751Z" fill="#E0E0E0"/>
<path d="M31.0613 86.3751H26.7146V259.652H31.0613V86.3751Z" fill="#E0E0E0"/>
<path d="M38.8554 86.3751H34.5088V259.652H38.8554V86.3751Z" fill="#E0E0E0"/>
<path d="M46.2715 86.3751H41.9248V259.652H46.2715V86.3751Z" fill="#E0E0E0"/>
<path d="M53.9045 86.3751H49.5579V259.652H53.9045V86.3751Z" fill="#E0E0E0"/>
<path d="M61.6987 86.3751H57.3521V259.652H61.6987V86.3751Z" fill="#E0E0E0"/>
<path d="M287.967 267.831C287.967 267.918 223.48 267.992 144.006 267.992C64.5324 267.992 0.0332031 267.918 0.0332031 267.831C0.0332031 267.744 64.4828 267.657 144 267.657C223.517 267.657 287.967 267.744 287.967 267.831Z" fill="#263238"/>
<path d="M199.378 48.5201L193.512 49.568C190.566 52.8952 186.482 55.0002 182.062 55.4691C177.643 55.9379 173.208 54.7368 169.629 52.1019C166.05 49.4669 163.587 45.5886 162.722 41.2293C161.858 36.87 162.655 32.345 164.957 28.5437C167.26 24.7424 170.901 21.9397 175.165 20.6866C179.428 19.4335 184.007 19.8205 188 21.7716C191.993 23.7227 195.112 27.0968 196.743 31.2306C198.375 35.3645 198.401 39.9591 196.817 44.1114L199.378 48.5201Z" fill="white"/>
<path d="M199.378 48.5201C199.378 48.5201 199.31 48.4209 199.192 48.2287L198.69 47.3792L196.761 44.1362H196.867C196.854 44.148 196.837 44.1545 196.82 44.1545C196.803 44.1545 196.786 44.148 196.774 44.1362C196.765 44.1245 196.761 44.1104 196.761 44.0959C196.761 44.0814 196.765 44.0673 196.774 44.0556C197.796 41.3267 198.135 38.3887 197.76 35.4987C197.64 34.5902 197.449 33.6925 197.189 32.8138C196.892 31.8814 196.523 30.9733 196.085 30.0979C195.148 28.1491 193.857 26.3914 192.278 24.9142C190.46 23.2186 188.307 21.923 185.957 21.1113C183.608 20.2996 181.114 19.9897 178.637 20.2017C175.897 20.4734 173.255 21.3707 170.917 22.8246C168.46 24.3478 166.424 26.4626 164.995 28.9756C162.831 32.7605 162.143 37.2126 163.065 41.4742C163.988 45.7358 166.454 49.5052 169.99 52.0564C173.526 54.6075 177.881 55.7597 182.216 55.2911C186.551 54.8225 190.56 52.7662 193.469 49.5184C193.469 49.5184 193.469 49.5184 193.506 49.5184L197.846 48.7929L198.981 48.6069L199.378 48.5449L199.012 48.6255L197.908 48.8363L193.525 49.661H193.568C191.615 51.8946 189.13 53.6005 186.344 54.6215C182.887 55.8882 179.124 56.0582 175.567 55.1083C172.01 54.1584 168.832 52.1349 166.467 49.3134C164.101 46.4919 162.664 43.0097 162.349 39.3414C162.035 35.6732 162.859 31.9972 164.71 28.8144L165.287 27.8533C165.498 27.5495 165.721 27.2332 165.938 26.9542C166.381 26.3656 166.857 25.8025 167.364 25.2676C167.606 24.9948 167.897 24.7654 168.158 24.5174C168.416 24.2612 168.689 24.021 168.976 23.7981C169.538 23.3466 170.128 22.9324 170.743 22.558C173.123 21.0806 175.811 20.1704 178.6 19.8979C181.121 19.6858 183.659 20.0062 186.049 20.8384C188.438 21.6705 190.626 22.9958 192.47 24.7282C194.065 26.2321 195.367 28.0193 196.309 29.9987C196.742 30.8985 197.103 31.8316 197.388 32.789C197.647 33.6798 197.834 34.5901 197.946 35.5111C198.309 38.4327 197.94 41.3987 196.873 44.1424L196.761 44.0804C196.774 44.0699 196.791 44.0641 196.808 44.0641C196.825 44.0641 196.841 44.0699 196.854 44.0804L198.714 47.4102L199.192 48.2535L199.378 48.5201Z" fill="#263238"/>
<path d="M180.001 45.0477L171.283 39.2191L173.317 36.1808L179.164 40.0872L186.431 30.4638L189.352 32.6712L180.001 45.0477Z" fill="#8C2F41"/>
<path d="M98.481 46.8026L101.401 41.0546C100.197 37.8 99.8839 34.2827 100.494 30.8665C101.105 27.4503 102.616 24.2591 104.873 21.6229C107.13 18.9867 110.05 17.0012 113.332 15.8716C116.613 14.742 120.136 14.5094 123.538 15.1979C126.578 15.806 129.43 17.1308 131.856 19.0624C134.282 20.994 136.211 23.4765 137.485 26.3037C138.758 29.131 139.339 32.2213 139.178 35.318C139.018 38.4146 138.12 41.4283 136.561 44.1085C135.002 46.7887 132.825 49.0582 130.213 50.7283C127.6 52.3985 124.627 53.4211 121.539 53.7112C118.452 54.0014 115.34 53.5507 112.462 52.3965C109.584 51.2424 107.023 49.4182 104.992 47.0754L98.481 46.8026Z" fill="white"/>
<path d="M98.481 46.8026H98.915L100.155 46.8398L104.967 47.001L104.905 47.1002C104.895 47.0846 104.892 47.0657 104.896 47.0476C104.9 47.0296 104.911 47.0139 104.927 47.0041C104.942 46.9942 104.961 46.991 104.979 46.995C104.997 46.9991 105.013 47.0102 105.023 47.0258C107.16 49.4612 109.871 51.3258 112.91 52.4514C113.851 52.8044 114.82 53.0802 115.806 53.276C116.864 53.4737 117.935 53.5939 119.011 53.6357C121.693 53.7403 124.368 53.2844 126.864 52.2972C129.36 51.3099 131.622 49.813 133.507 47.902C135.392 45.991 136.857 43.7079 137.81 41.1986C138.762 38.6893 139.181 36.0088 139.039 33.3285C139.008 32.9503 139.008 32.5658 138.965 32.1876C138.922 31.8094 138.847 31.4311 138.785 31.0529L138.698 30.4824C138.661 30.2964 138.605 30.1104 138.562 29.9244L138.271 28.7958C138.171 28.4238 138.01 28.0642 137.886 27.6983C137.765 27.3274 137.624 26.9631 137.464 26.607C137.145 25.8874 136.783 25.1875 136.379 24.5112C136.169 24.1764 135.983 23.8291 135.759 23.5005L135.059 22.5518L134.699 22.1115L134.308 21.6775L133.527 20.8032C132.44 19.7135 131.231 18.7523 129.924 17.9385C127.391 16.3722 124.535 15.3992 121.572 15.0924C118.883 14.8416 116.172 15.1531 113.61 16.0071C111.048 16.8611 108.691 18.2389 106.691 20.0529C104.941 21.6369 103.497 23.5284 102.431 25.6335C102.201 26.1358 101.916 26.6132 101.743 27.1217L101.197 28.616C100.917 29.582 100.694 30.5634 100.527 31.5551C100.046 34.7608 100.379 38.0359 101.494 41.0793C101.501 41.0974 101.501 41.1171 101.494 41.1352C100.533 42.9954 99.7955 44.3967 99.2932 45.3702L98.7166 46.4677C98.5864 46.7157 98.512 46.846 98.512 46.846L98.6856 46.4863C98.8096 46.2259 98.9894 45.8663 99.225 45.3888L101.37 41.0483V41.1041C100.215 38.0447 99.8547 34.7422 100.323 31.5055C100.485 30.5017 100.704 29.508 100.98 28.5292L101.532 27.0163C101.732 26.5002 101.96 25.9951 102.214 25.5033C103.288 23.3676 104.744 21.4468 106.511 19.8359C110.278 16.4209 115.218 14.5914 120.3 14.7289C125.383 14.8664 130.217 16.9601 133.794 20.5738L134.587 21.4605L134.99 21.9007L135.344 22.3782L136.001 23.3517C136.224 23.6803 136.423 24.0338 136.621 24.381C137.034 25.0473 137.405 25.739 137.731 26.452C137.917 26.8054 138.016 27.1961 138.165 27.5619C138.314 27.9278 138.457 28.2998 138.556 28.678L138.847 29.8252C138.891 30.0112 138.953 30.2034 138.99 30.3956L139.077 30.9723C139.139 31.3567 139.194 31.7412 139.256 32.1256C139.318 32.51 139.306 32.9007 139.331 33.2851C139.472 36.0024 139.045 38.7192 138.077 41.2621C137.109 43.8051 135.621 46.1183 133.709 48.0542C131.797 49.9901 129.503 51.5062 126.972 52.5056C124.441 53.5051 121.73 53.966 119.011 53.8589C117.922 53.8179 116.838 53.6914 115.768 53.4807C111.552 52.6196 107.742 50.3817 104.936 47.1188L105.047 47.0444C105.058 47.0576 105.064 47.074 105.064 47.0909C105.064 47.1078 105.058 47.1242 105.047 47.1374H105.01L100.155 46.8832L98.915 46.815L98.481 46.8026Z" fill="#263238"/>
<path d="M120.468 43.5534H110.938V24.1268H120.468V43.5534ZM111.558 42.9334H119.848V24.7468H111.558V42.9334Z" fill="#263238"/>
<path d="M114.981 26.9915H113.021V29.3601H114.981V26.9915Z" fill="#263238"/>
<path d="M118.385 26.9915H116.426V29.3601H118.385V26.9915Z" fill="#263238"/>
<path d="M114.981 30.6871H113.021V33.0557H114.981V30.6871Z" fill="#263238"/>
<path d="M118.385 30.6871H116.426V33.0557H118.385V30.6871Z" fill="#263238"/>
<path d="M114.981 34.3889H113.021V36.7575H114.981V34.3889Z" fill="#263238"/>
<path d="M118.385 34.3889H116.426V36.7575H118.385V34.3889Z" fill="#263238"/>
<path d="M114.981 38.2023H113.021V40.5709H114.981V38.2023Z" fill="#263238"/>
<path d="M118.385 38.2023H116.426V40.5709H118.385V38.2023Z" fill="#263238"/>
<path d="M123.749 36.0692H121.789V38.4379H123.749V36.0692Z" fill="#263238"/>
<path d="M127.153 36.0692H125.193V38.4379H127.153V36.0692Z" fill="#263238"/>
<path d="M123.749 39.3866H121.789V41.7552H123.749V39.3866Z" fill="#263238"/>
<path d="M127.153 39.3866H125.193V41.7552H127.153V39.3866Z" fill="#263238"/>
<path d="M129.118 43.5534H119.817V33.8928H129.118V43.5534ZM120.437 42.9334H128.498V34.5129H120.437V42.9334Z" fill="#263238"/>
<path d="M127.376 26.421H123.005V32.6403H127.376V26.421Z" fill="#455A64"/>
<path d="M125.187 27.4813H122.068L123.631 25.5219L125.187 23.5687L126.75 25.5219L128.312 27.4813H125.187Z" fill="#455A64"/>
<path d="M224.993 259.423V260.13C224.993 260.13 213.131 265.022 213.026 267.285L236.663 266.938L236.228 259.076C234.49 259.937 232.587 260.413 230.649 260.473C228.71 260.533 226.781 260.175 224.993 259.423Z" fill="#263238"/>
<path d="M236.669 266.938L236.563 265.078L213.95 266.101C213.95 266.101 212.902 266.572 213.032 267.341L236.669 266.938Z" fill="#455A64"/>
<path d="M224.918 260.217C224.918 260.328 225.501 260.372 226.072 260.738C226.642 261.103 226.952 261.581 227.058 261.531C227.163 261.482 226.983 260.818 226.283 260.397C225.582 259.975 224.887 260.093 224.918 260.217Z" fill="white"/>
<path d="M222.451 261.258C222.451 261.37 222.928 261.556 223.331 262.04C223.734 262.523 223.846 263.038 223.951 263.032C224.057 263.026 224.131 262.368 223.623 261.792C223.114 261.215 222.451 261.147 222.451 261.258Z" fill="white"/>
<path d="M221.086 264.247C221.192 264.247 221.347 263.689 221.037 263.063C220.727 262.436 220.187 262.188 220.144 262.288C220.101 262.387 220.435 262.715 220.677 263.236C220.919 263.757 220.975 264.235 221.086 264.247Z" fill="white"/>
<path d="M241.896 252.298L231.832 255.114L234.344 260.818L231.733 275.259C231.661 275.656 231.738 276.064 231.948 276.407C232.159 276.751 232.488 277.004 232.874 277.12C233.174 277.204 233.491 277.203 233.79 277.117C234.09 277.03 234.358 276.861 234.567 276.63C236.787 274.15 244.909 264.935 244.717 263.813L244.395 260.812C244.327 260.192 243.725 258.71 243.725 258.574L241.896 252.298Z" fill="#263238"/>
<path d="M233.172 277.194L244.624 262.784L244.68 263.441C244.721 263.711 244.7 263.987 244.62 264.247C244.539 264.508 244.401 264.748 244.215 264.948C243.316 266.399 240.761 269.691 234.61 276.648C234.432 276.848 234.208 277.002 233.958 277.097C233.707 277.192 233.438 277.225 233.172 277.194Z" fill="#455A64"/>
<path d="M236.191 270.088C235.763 269.636 235.251 269.269 234.685 269.009C234.08 268.838 233.45 268.779 232.824 268.835C232.824 268.798 232.998 268.656 233.37 268.575C233.853 268.475 234.353 268.514 234.815 268.687C235.276 268.854 235.679 269.151 235.974 269.542C236.179 269.84 236.229 270.069 236.191 270.088Z" fill="white"/>
<path d="M235.243 272.265C234.764 272.056 234.273 271.876 233.773 271.725C233.251 271.68 232.728 271.663 232.204 271.676C232.437 271.503 232.707 271.388 232.992 271.338C233.277 271.289 233.57 271.307 233.848 271.39C234.809 271.576 235.323 272.215 235.243 272.265Z" fill="white"/>
<path d="M238.058 267.23C237.345 266.851 236.605 266.526 235.844 266.256C235.049 266.092 234.243 265.984 233.432 265.934C234.235 265.65 235.11 265.65 235.912 265.934C236.759 266.097 237.519 266.556 238.058 267.23Z" fill="white"/>
<path d="M234.226 258.859C234.326 259.5 234.365 260.15 234.343 260.799C234.219 261.637 234.04 262.709 233.841 263.869C233.599 265.239 233.364 266.479 233.178 267.378C233.107 267.869 232.987 268.351 232.818 268.817C232.82 268.321 232.872 267.827 232.973 267.341C233.103 266.436 233.302 265.19 233.544 263.813C233.748 262.653 233.947 261.587 234.114 260.762C234.1 260.126 234.137 259.489 234.226 258.859Z" fill="#455A64"/>
<path d="M248.543 165.892C249.337 162.066 251.346 155.147 250.558 151.959C248.698 144.574 245.505 140.302 241.108 130.927H237.841L206.478 130.381L203.911 136.073C201.058 143.744 199.111 148.32 198.33 153.931C197.406 160.392 199.024 169.755 202.621 179.211C210.372 199.618 214.7 215.938 215.022 220.334C215.345 224.73 215.785 229.269 219.865 243.19C222.835 253.353 225.036 259.423 225.036 259.423C228.137 261.172 231.404 261.643 234.387 259.944L243.489 256.434C243.489 256.434 240.699 232.469 237.444 226.107C235.1 221.531 231.243 219.36 233.054 213.395C234.864 207.43 246.112 177.642 248.543 165.892Z" fill="#263238"/>
<path d="M211.835 146.54C211.881 146.59 211.923 146.644 211.959 146.701L212.306 147.179L213.633 149.07L218.594 156.219V156.25V156.281C218.352 158.96 218.259 162.066 218.092 165.533C217.924 168.999 217.744 172.806 217.552 176.898C217.36 180.991 217.106 185.369 216.87 189.951C216.635 194.533 216.362 199.332 215.903 204.262C215.425 208.361 215.004 212.391 215.351 216.26C215.444 217.227 215.562 218.182 215.742 219.119C215.9 220.046 216.128 220.96 216.424 221.853C217.044 223.589 217.825 225.276 218.538 226.913C221.434 233.467 224.119 239.314 226.401 244.244L231.808 255.876L233.265 259.051C233.42 259.404 233.544 259.671 233.637 259.876C233.73 260.08 233.755 260.161 233.755 260.161C233.755 260.161 233.699 260.074 233.606 259.888L233.209 259.076C232.855 258.344 232.353 257.284 231.702 255.932L226.239 244.318C223.957 239.407 221.223 233.56 218.315 227.012C217.596 225.369 216.839 223.707 216.176 221.934C215.877 221.028 215.647 220.102 215.487 219.162C215.301 218.213 215.177 217.252 215.084 216.279C214.731 212.366 215.153 208.311 215.63 204.212C216.089 199.308 216.324 194.502 216.604 189.951C216.883 185.4 217.093 180.991 217.31 176.898C217.527 172.806 217.713 168.993 217.893 165.533C218.073 162.073 218.185 158.96 218.445 156.281V156.337C216.349 153.237 214.688 150.812 213.54 149.138L212.251 147.222L211.928 146.726C211.89 146.668 211.859 146.605 211.835 146.54Z" fill="#455A64"/>
<path d="M216.014 79.542L217.943 74.6744L229.42 74.0544L234.108 74.6744L234.623 76.0262L237.804 132.316C237.804 132.316 226.686 134.56 221.13 133.779C215.574 132.998 209.032 130.462 209.032 130.462V98.4478L216.014 79.542Z" fill="#F5F5F5"/>
<path d="M233.289 81.83C233.289 81.83 233.289 81.8672 233.209 81.9292L232.961 82.2082C232.744 82.4501 232.415 82.8283 231.981 83.2251C230.798 84.3994 229.543 85.499 228.223 86.5177L228.168 86.5611L228.124 86.5053C226.883 85.1452 225.731 83.7057 224.677 82.1958C224.559 82.0284 224.447 81.8548 224.336 81.6998H224.478C223.492 83.0205 222.562 84.2731 221.719 85.4202C221.61 85.5665 221.481 85.696 221.334 85.8046C221.26 85.8637 221.174 85.9073 221.083 85.9329C220.991 85.9584 220.895 85.9654 220.801 85.9534C220.625 85.9152 220.465 85.8244 220.342 85.693C220.218 85.569 220.125 85.4388 220.026 85.321L218.935 83.9568L217.372 81.9788L216.957 81.4394C216.906 81.3789 216.861 81.3147 216.82 81.2471L216.982 81.4207L217.422 81.9416L219.028 83.8824L220.131 85.2342C220.33 85.4698 220.528 85.755 220.826 85.8046C221.124 85.8542 221.39 85.5938 221.595 85.3272L224.342 81.6068L224.41 81.5076L224.478 81.6068L224.813 82.0966C225.866 83.6005 227.009 85.0396 228.236 86.4061H228.13C229.453 85.4013 230.718 84.3227 231.919 83.1755C232.359 82.7539 232.694 82.4191 232.93 82.1896L233.196 81.9292C233.223 81.8925 233.254 81.8592 233.289 81.83Z" fill="#263238"/>
<g opacity="0.3">
<path d="M220.175 85.4016C220.175 85.4016 221.632 87.1936 222.035 86.7409C222.438 86.2883 224.602 82.9523 224.857 82.8159C225.111 82.6795 227.721 87.3548 228.744 87.0323C229.767 86.7099 233.413 83.0577 233.413 83.0577L233.482 81.6254L228.174 86.4557L224.41 81.6378L221.235 85.7612C221.235 85.7612 220.566 86.3069 220.175 85.4016Z" fill="black"/>
</g>
<path d="M222.618 134.12C222.603 133.945 222.603 133.768 222.618 133.593C222.618 133.221 222.618 132.713 222.668 132.08C222.724 130.741 222.798 128.85 222.891 126.5C223.089 121.806 223.356 115.338 223.604 108.164C223.852 100.99 224.032 94.5228 224.162 89.8227C224.224 87.4974 224.28 85.6062 224.317 84.2421C224.342 83.6096 224.361 83.1074 224.373 82.7353C224.373 82.5587 224.387 82.3824 224.416 82.2083C224.431 82.3836 224.431 82.5599 224.416 82.7353V84.2483C224.416 85.5938 224.385 87.485 224.361 89.8289C224.292 94.5228 224.144 100.99 223.902 108.177C223.66 115.363 223.35 121.818 223.096 126.512C222.959 128.831 222.848 130.722 222.767 132.093C222.724 132.713 222.686 133.227 222.655 133.605C222.654 133.778 222.642 133.95 222.618 134.12Z" fill="#263238"/>
<g opacity="0.3">
<path d="M212.505 111.401L206.478 150.967L206.943 155.252C207.47 155.872 208.53 155.655 209.063 155.06C209.546 154.414 209.834 153.644 209.894 152.84C212.207 139.155 213.447 125.241 212.505 111.401Z" fill="black"/>
</g>
<path d="M204.022 79.6908C202.916 80.0473 201.913 80.6668 201.098 81.4963C200.284 82.3257 199.683 83.3402 199.347 84.4529L192.167 109.783L198.057 127.144L204.208 116.678L208.549 78.7979L204.022 79.6908Z" fill="#8C2F41"/>
<path d="M212.319 78.0662L205.498 79.3994L203.588 115.605C203.588 116.051 204.035 123.046 204.035 123.046L192.253 149.349C194.882 154.037 201.988 156.238 206.999 157.41C206.999 157.41 212.071 121.446 212.399 113.522C212.728 105.597 217.819 74.7861 217.819 74.7861L212.319 78.0662Z" fill="#8C2F41"/>
<path d="M193.729 146.366L193.773 146.249L193.921 145.901L194.492 144.574C194.994 143.415 195.732 141.741 196.637 139.651L203.979 122.984V123.021C203.923 121.229 203.855 119.369 203.768 117.44C203.57 113.156 203.334 109.069 203.179 105.355C203.024 101.641 202.925 98.2866 202.894 95.4715C202.863 92.6564 202.894 90.3807 202.894 88.812C202.894 88.0307 202.925 87.423 202.937 87.0014C202.937 86.7967 202.937 86.6417 202.937 86.5301C202.937 86.4185 202.937 86.3689 202.937 86.3689C202.937 86.3689 202.937 86.4247 202.937 86.5301V87.0014C202.937 87.423 202.937 88.0307 202.937 88.812C202.937 90.3807 202.937 92.6626 202.981 95.4715C203.024 98.2804 203.129 101.629 203.303 105.349C203.477 109.069 203.688 113.15 203.923 117.434C204.01 119.338 204.078 121.204 204.128 123.015V123.052L196.737 139.701C195.806 141.778 195.062 143.421 194.542 144.599C194.287 145.17 194.083 145.61 193.921 145.914C193.853 146.063 193.804 146.174 193.76 146.255C193.755 146.293 193.744 146.331 193.729 146.366Z" fill="#263238"/>
<path d="M212.077 109.59C212.077 109.59 212.077 109.559 212.046 109.504L211.984 109.249C211.928 109.014 211.854 108.691 211.761 108.276C211.581 107.426 211.333 106.192 211.097 104.648C210.862 103.104 210.638 101.275 210.477 99.2228C210.316 97.1704 210.155 94.9196 210.043 92.5509C210.006 91.6642 209.963 90.7961 209.925 89.9466L209.87 88.7065C209.87 88.5019 209.87 88.2973 209.87 88.0864V87.7764V87.6214C209.87 87.6214 209.87 87.5718 209.87 87.5408C209.87 87.5098 209.87 87.5408 209.87 87.485V87.4478C209.87 87.4478 209.944 87.4168 209.956 87.4478C209.969 87.4788 210 87.4478 210.018 87.4974H209.901L211.724 86.22V86.3565L209.727 85.3582H209.671V85.3024C209.969 84.18 210.328 83.1755 210.638 82.295C210.948 81.4145 211.259 80.6457 211.488 80.0194C211.717 79.3931 211.928 78.9095 212.065 78.5746C212.133 78.4196 212.189 78.2956 212.226 78.1964C212.263 78.0972 212.288 78.0724 212.288 78.0724C212.279 78.1195 212.265 78.1653 212.244 78.2088L212.108 78.5932C211.978 78.9405 211.798 79.4303 211.562 80.0504C211.327 80.6705 211.054 81.4455 210.75 82.3322C210.446 83.2189 210.099 84.1924 209.808 85.3396L209.77 85.2589L211.755 86.1704L211.879 86.2262L211.767 86.3069L209.95 87.5842H209.832C209.832 87.5842 209.894 87.5408 209.888 87.5408C209.882 87.5408 209.888 87.5408 209.888 87.5408C209.893 87.5435 209.898 87.5449 209.904 87.5449C209.909 87.5449 209.914 87.5435 209.919 87.5408H209.95V87.7702V88.074L209.981 88.6941C209.981 89.1034 210.018 89.525 210.037 89.9342C210.074 90.7837 210.118 91.6518 210.155 92.5385C210.266 94.9072 210.403 97.158 210.576 99.2042C210.75 101.25 210.961 103.092 211.196 104.63C211.432 106.168 211.649 107.401 211.817 108.257C211.897 108.673 211.965 109.001 212.009 109.237C212.009 109.342 212.046 109.429 212.058 109.491C212.071 109.553 212.077 109.59 212.077 109.59Z" fill="#263238"/>
<path d="M245.852 126.326L250.192 82.5183L237.996 78.0476C237.996 78.0476 235.137 75.4186 233.618 74.0606L233.079 80.9309C233.079 80.9309 231.429 109.051 234.027 123.213C236.625 137.375 236.26 136.892 238.157 146.106C239.54 152.809 239.769 158.662 241.877 159.251C243.986 159.84 254.502 155.99 254.502 155.99L245.852 126.326Z" fill="#8C2F41"/>
<path d="M250.186 82.5183C250.186 82.5183 254.961 84.3351 255.68 90.4799C256.207 95.0188 258.997 120.944 256.077 124.174C252.584 127.929 248.764 131.366 244.661 134.443L237.841 125.569L244.314 118.451L247.966 87.0448L250.186 82.5183Z" fill="#8C2F41"/>
<path d="M236.65 108.084C236.647 108.055 236.647 108.026 236.65 107.997C236.65 107.935 236.65 107.854 236.693 107.755C236.739 107.532 236.801 107.222 236.88 106.825C237.028 106.019 237.252 104.847 237.456 103.39C237.89 100.475 238.262 96.4264 238.473 91.9371C238.523 90.8789 238.572 89.8454 238.622 88.8368C238.622 88.3345 238.665 87.8447 238.69 87.361L238.727 86.6479C238.727 86.5301 238.727 86.4123 238.727 86.2945V86.1271C238.731 86.1003 238.731 86.0732 238.727 86.0465C238.743 86.0517 238.761 86.0517 238.777 86.0465H238.827H238.715L236.898 84.7629L236.793 84.6947L236.911 84.6389L238.895 83.7274L238.858 83.8018C238.683 83.003 238.548 82.1959 238.454 81.3836C238.361 80.6643 238.275 80.0504 238.175 79.5544C238.076 79.0583 237.971 78.6739 237.896 78.4135L237.797 78.122C237.797 78.06 237.766 78.0228 237.797 78.0228C237.814 78.0527 237.828 78.0838 237.841 78.1158C237.841 78.184 237.909 78.2771 237.952 78.4011C238.084 78.7716 238.189 79.1507 238.268 79.5358C238.38 80.038 238.479 80.6519 238.585 81.365C238.687 82.1736 238.83 82.9766 239.013 83.7708V83.8204H238.963L237.01 84.7939V84.6699L238.833 85.9411H238.715C238.733 85.9256 238.754 85.9149 238.777 85.9101C238.797 85.9051 238.819 85.9051 238.839 85.9101C238.839 85.9101 238.839 85.9473 238.839 85.9659V86.2387C238.839 86.3565 238.839 86.4743 238.839 86.5921C238.839 86.8278 238.839 87.0634 238.808 87.3052C238.808 87.7889 238.765 88.2787 238.746 88.781C238.696 89.7793 238.653 90.8148 238.603 91.8813C238.444 95.7189 238.086 99.5458 237.531 103.346C237.307 104.803 237.066 105.969 236.911 106.775C236.818 107.166 236.749 107.476 236.693 107.699C236.669 107.798 236.65 107.879 236.638 107.941C236.662 108.059 236.656 108.084 236.65 108.084Z" fill="#263238"/>
<path d="M253.448 119.499C253.448 119.499 253.02 119.214 252.288 118.879C251.857 118.67 251.409 118.498 250.949 118.364C250.383 118.207 249.804 118.104 249.219 118.054C248.634 118.017 248.046 118.034 247.464 118.104C246.989 118.165 246.52 118.269 246.063 118.414C245.282 118.656 244.823 118.91 244.823 118.879C244.916 118.801 245.021 118.736 245.133 118.687C245.255 118.62 245.382 118.56 245.511 118.507C245.68 118.426 245.854 118.356 246.032 118.296C246.493 118.136 246.969 118.02 247.452 117.949C248.639 117.776 249.85 117.867 250.999 118.215C251.463 118.359 251.913 118.543 252.344 118.767C252.511 118.852 252.673 118.948 252.828 119.053C252.95 119.124 253.068 119.203 253.181 119.288C253.278 119.348 253.367 119.419 253.448 119.499Z" fill="#263238"/>
<g opacity="0.3">
<path d="M238.002 78.6119C238.002 78.6119 240.203 83.746 239.862 84.1925C239.521 84.6389 238.399 84.9241 238.399 84.9241C238.399 84.9241 240.296 85.7488 240.296 86.4743C240.296 87.9253 238.256 96.507 238.256 96.507L238.758 86.0217L236.942 84.7815L238.926 83.8576L238.002 78.6119Z" fill="black"/>
</g>
<path d="M246.782 93.0656C246.798 93.1849 246.798 93.3059 246.782 93.4253C246.782 93.6919 246.745 94.0453 246.72 94.4484C246.652 95.3847 246.553 96.6558 246.435 98.2122C246.156 101.43 245.784 105.796 245.368 110.613C245.226 112.114 245.095 113.571 244.965 114.954C244.899 115.648 244.825 116.324 244.742 116.982C244.681 117.624 244.569 118.261 244.407 118.885L239.676 123.802L238.337 125.142C238.187 125.311 238.021 125.464 237.841 125.6C237.969 125.416 238.114 125.243 238.275 125.086L239.552 123.684L244.165 118.78V118.829C244.311 118.217 244.413 117.596 244.469 116.969C244.543 116.318 244.612 115.642 244.68 114.948C244.804 113.559 244.934 112.102 245.071 110.607C245.523 105.789 245.932 101.424 246.23 98.206C246.391 96.6496 246.528 95.3785 246.621 94.4484C246.67 94.0391 246.714 93.6981 246.745 93.4315C246.742 93.3084 246.754 93.1855 246.782 93.0656Z" fill="#263238"/>
<path d="M193.456 105.237L188.725 115.779L184.261 110.775L178.302 114.979L185.303 126.208C187.504 129.029 189.606 130.952 191.999 130.648C192.481 130.581 192.954 130.467 193.413 130.307C196.699 129.184 198.963 126.977 199.818 123.61L202.528 110.024L193.456 105.237Z" fill="#8C2F41"/>
<path d="M193.946 124.063C193.906 123.916 193.874 123.767 193.853 123.616C193.804 123.331 193.717 122.916 193.599 122.407C193.481 121.899 193.32 121.303 193.109 120.646C192.898 119.989 192.632 119.282 192.316 118.556C191.999 117.831 191.646 117.155 191.311 116.554C190.976 115.952 190.635 115.431 190.344 115.004C190.052 114.576 189.798 114.228 189.625 113.999C189.528 113.883 189.439 113.761 189.358 113.633C189.469 113.735 189.571 113.847 189.662 113.968C189.854 114.191 190.114 114.526 190.418 114.948C190.722 115.369 191.038 115.896 191.417 116.492C191.791 117.144 192.133 117.814 192.44 118.501C192.756 119.232 193.016 119.952 193.227 120.609C193.438 121.266 193.587 121.849 193.692 122.389C193.798 122.928 193.866 123.319 193.903 123.629C193.93 123.772 193.945 123.917 193.946 124.063Z" fill="#263238"/>
<path d="M220.033 38.103L219.995 38.2642C220.026 38.2332 220.026 38.1588 220.033 38.103Z" fill="#263238"/>
<path d="M208.567 68.4304C208.648 66.7438 208.016 65.113 207.482 63.5071C206.949 61.9011 206.509 60.1649 206.961 58.5465C207.532 56.5003 209.374 55.0742 210.366 53.1892C211.358 51.3042 211.432 49.0781 211.606 46.9513C211.779 44.8245 212.139 42.5675 213.553 40.9615C215.339 38.9277 220.014 38.5618 222.234 40.1306C222.575 52.2343 222.469 64.2201 219.877 76.051C213.968 76.3052 210.973 75.1519 205.821 72.2624C207.464 71.909 208.487 70.1232 208.567 68.4304Z" fill="#263238"/>
<path d="M233.91 76.1006L236.049 46.7095C236.08 46.0607 235.866 45.4239 235.451 44.9246C235.035 44.4254 234.448 44.0998 233.804 44.0122L220.163 40.1492C215.773 39.5291 212.691 44.8989 212.288 49.3076C211.841 54.2061 211.488 60.2083 211.965 63.8853C212.927 71.2827 218.544 72.3802 218.544 72.3802C218.426 76.0262 218.47 76.1006 218.47 76.1006L224.491 81.6068L233.91 76.1006Z" fill="#FFBF9D"/>
<path d="M214.278 55.7066C214.268 55.9526 214.354 56.1928 214.519 56.3758C214.683 56.5589 214.913 56.6704 215.159 56.6863C215.279 56.6992 215.4 56.6879 215.515 56.6531C215.631 56.6184 215.738 56.5609 215.831 56.4841C215.924 56.4073 216.001 56.3126 216.057 56.2058C216.113 56.0989 216.147 55.9819 216.157 55.8617C216.166 55.6161 216.079 55.3768 215.914 55.1941C215.75 55.0114 215.522 54.8995 215.276 54.882C215.157 54.8691 215.035 54.8804 214.92 54.9152C214.804 54.9499 214.697 55.0073 214.604 55.0842C214.511 55.161 214.434 55.2556 214.378 55.3625C214.322 55.4694 214.288 55.5864 214.278 55.7066Z" fill="#263238"/>
<path d="M213.491 52.4947C213.602 52.6187 214.334 52.1103 215.351 52.1413C216.368 52.1723 217.099 52.7055 217.211 52.5815C217.323 52.4575 217.155 52.3025 216.839 52.0545C216.406 51.7382 215.887 51.5629 215.351 51.5522C214.823 51.5355 214.304 51.6876 213.869 51.9863C213.546 52.1909 213.447 52.4141 213.491 52.4947Z" fill="#263238"/>
<path d="M222.947 55.8865C222.936 56.1324 223.023 56.3726 223.187 56.5557C223.352 56.7388 223.581 56.8502 223.827 56.8662C223.947 56.879 224.068 56.8677 224.184 56.833C224.299 56.7983 224.407 56.7408 224.5 56.664C224.593 56.5872 224.67 56.4925 224.725 56.3856C224.781 56.2787 224.815 56.1617 224.825 56.0415C224.836 55.7956 224.749 55.5554 224.585 55.3723C224.42 55.1892 224.191 55.0778 223.945 55.0618C223.825 55.0481 223.703 55.0588 223.587 55.0932C223.471 55.1276 223.364 55.185 223.27 55.262C223.177 55.3389 223.101 55.4339 223.045 55.5412C222.989 55.6486 222.956 55.766 222.947 55.8865Z" fill="#263238"/>
<path d="M223.474 52.9412C223.592 53.0652 224.323 52.5567 225.334 52.5877C226.345 52.6187 227.083 53.152 227.194 53.028C227.306 52.904 227.138 52.749 226.822 52.5071C226.391 52.188 225.871 52.0104 225.334 51.9987C224.806 51.982 224.287 52.134 223.852 52.4327C223.536 52.6622 223.418 52.8854 223.474 52.9412Z" fill="#263238"/>
<path d="M219.573 60.3757C219.043 60.1888 218.491 60.0721 217.93 60.0285C217.67 59.9975 217.428 59.9355 217.391 59.7557C217.374 59.4877 217.442 59.2212 217.583 58.993C217.844 58.3729 218.123 57.7529 218.408 57.0398C219.555 54.2557 220.392 51.9677 220.268 51.918C220.144 51.8684 219.133 54.0945 217.986 56.8786C217.713 57.5606 217.447 58.2179 217.199 58.8442C217.024 59.1526 216.965 59.513 217.031 59.8611C217.068 59.9525 217.124 60.0349 217.196 60.1024C217.267 60.1698 217.353 60.2208 217.447 60.2517C217.59 60.2946 217.738 60.3196 217.887 60.3261C218.445 60.4108 219.011 60.4275 219.573 60.3757Z" fill="#263238"/>
<path d="M218.532 72.3802C221.992 72.5282 225.426 71.7148 228.453 70.0301C228.893 69.0132 226.481 73.7071 218.476 74.3086L218.532 72.3802Z" fill="#FF9A6C"/>
<path d="M219.648 62.794C219.885 62.4633 220.199 62.1959 220.563 62.0153C220.928 61.8347 221.331 61.7465 221.737 61.7585C222.003 61.77 222.263 61.8461 222.493 61.98C222.723 62.1139 222.917 62.3018 223.058 62.5273C223.197 62.7819 223.264 63.0696 223.25 63.3593C223.237 63.649 223.145 63.9295 222.984 64.1705C222.792 64.418 222.531 64.6023 222.234 64.6996C221.936 64.7969 221.616 64.8027 221.316 64.7162C220.756 64.5148 220.252 64.1832 219.846 63.7489C219.717 63.6417 219.611 63.5087 219.536 63.3582C219.499 63.2752 219.485 63.1838 219.495 63.0934C219.505 63.003 219.538 62.9168 219.592 62.8436" fill="#FF9A6C"/>
<path d="M222.544 61.1756C222.376 61.1756 222.345 62.2607 221.378 63.0358C220.411 63.8109 219.245 63.6559 219.226 63.7923C219.208 63.9287 219.487 64.0155 219.983 64.0403C220.628 64.0671 221.261 63.8675 221.775 63.476C222.266 63.0963 222.591 62.5405 222.68 61.9259C222.748 61.436 222.618 61.1756 222.544 61.1756Z" fill="#263238"/>
<path d="M223.145 48.7743C223.238 49.0533 224.255 48.9541 225.446 49.1277C226.636 49.3014 227.591 49.661 227.752 49.4192C227.827 49.3014 227.665 49.0347 227.287 48.7557C226.778 48.4171 226.196 48.2045 225.588 48.1356C224.981 48.0438 224.36 48.0969 223.778 48.2907C223.331 48.4023 223.108 48.6131 223.145 48.7743Z" fill="#E0E0E0"/>
<path d="M213.95 48.979C214.123 49.2146 214.83 48.979 215.667 48.979C216.504 48.979 217.217 49.1774 217.391 48.9417C217.465 48.8239 217.36 48.5945 217.056 48.3651C216.648 48.0834 216.163 47.936 215.667 47.9434C215.171 47.9411 214.687 48.0904 214.278 48.3713C213.974 48.6317 213.875 48.8673 213.95 48.979Z" fill="#263238"/>
<path d="M218.526 40.0934C219.766 37.0675 222.525 36.4288 225.458 36.1126C228.391 35.7964 232.744 37.0117 235.168 38.5929C237.184 39.8209 238.996 41.3566 240.538 43.1441C241.84 44.8245 242.398 46.7405 243.229 48.6751C244.469 51.6886 244.407 55.0184 244.581 58.2551C244.806 62.3217 245.456 66.3535 246.522 70.2844C246.906 71.6982 247.297 73.3847 245.281 74.197C244.907 74.3421 244.515 74.438 244.116 74.4823C241.015 74.8543 238.014 75.865 234.561 76.082H232.434C229.736 76.082 228.354 74.3458 228.447 72.1446C228.726 65.4913 231.969 54.5657 232.328 52.4699C232.347 52.4947 233.469 38.134 218.526 40.0934Z" fill="#263238"/>
<path d="M219.499 40.0314C219.949 40.4069 220.319 40.8697 220.585 41.3919C220.852 41.9141 221.01 42.4848 221.049 43.0697C221.211 44.2292 221.142 45.4198 221.359 46.5669C221.586 47.7197 222.087 48.8009 222.82 49.7193C223.553 50.6377 224.496 51.3663 225.57 51.8436C226.258 52.1351 227.194 52.2591 227.622 51.6452C227.597 52.4628 227.82 53.2687 228.263 53.9564C228.706 54.644 229.348 55.1808 230.102 55.4958C231.194 55.9361 232.415 55.8617 233.562 56.1159C234.709 56.3701 235.912 57.1576 235.974 58.3357L236.458 50.1571L234.158 42.9271L227.089 38.7292L219.499 40.0314Z" fill="#263238"/>
<path d="M232.049 53.5116C231.811 53.3463 231.585 53.1639 231.373 52.966C230.842 52.3769 230.459 51.6688 230.257 50.9011C229.975 49.7616 229.811 48.5959 229.767 47.4226C229.712 45.9752 229.544 44.5343 229.265 43.1131C228.98 41.6772 228.316 40.3435 227.343 39.2501C226.907 38.7814 226.382 38.4041 225.799 38.1402C225.289 37.9144 224.743 37.7801 224.187 37.7433C223.381 37.6783 222.575 37.8716 221.886 38.2952C221.778 38.3572 221.676 38.4299 221.583 38.5122C221.508 38.5664 221.439 38.6288 221.378 38.6982C221.322 38.7524 221.27 38.8104 221.223 38.8719C221.436 38.6737 221.666 38.4952 221.911 38.3386C222.598 37.9432 223.391 37.7699 224.181 37.8426C225.367 37.9277 226.475 38.4622 227.281 39.3369C228.224 40.421 228.865 41.7339 229.141 43.1441C229.417 44.5577 229.587 45.9899 229.65 47.4288C229.698 48.6122 229.875 49.7868 230.177 50.9321C230.388 51.7095 230.791 52.4215 231.349 53.0032C231.552 53.211 231.789 53.3829 232.049 53.5116Z" fill="white"/>
<path d="M238.163 52.5257C237.793 52.4823 237.43 52.3906 237.084 52.2529C236.166 51.8082 235.386 51.1224 234.827 50.2687C234.423 49.6963 234.077 49.0857 233.792 48.4457C233.486 47.7011 233.292 46.9155 233.215 46.1142C233.11 45.271 233.079 44.3719 232.979 43.4418C232.924 42.9829 232.862 42.5055 232.756 42.0342C232.644 41.5552 232.486 41.088 232.285 40.6391C231.491 38.9186 230.079 37.5597 228.329 36.8319C226.905 36.2487 225.33 36.1422 223.84 36.528C222.839 36.7749 221.901 37.2291 221.087 37.8612C220.789 38.0901 220.515 38.3476 220.268 38.6301C220.29 38.6172 220.309 38.6004 220.324 38.5804L220.485 38.4378C220.553 38.3696 220.64 38.289 220.746 38.2022C220.851 38.1154 220.975 38.0038 221.124 37.9046C221.94 37.2957 222.873 36.861 223.864 36.6272C225.333 36.2637 226.879 36.3766 228.279 36.9497C229.986 37.669 231.366 38.9941 232.155 40.6701C232.349 41.1119 232.503 41.5706 232.614 42.0404C232.712 42.5014 232.786 42.967 232.837 43.4356C232.936 44.3533 232.973 45.2523 233.079 46.108C233.167 46.9199 233.376 47.7141 233.699 48.4643C233.991 49.1174 234.346 49.7405 234.759 50.3245C235.336 51.1836 236.139 51.8678 237.078 52.3025C237.338 52.4009 237.608 52.4675 237.884 52.5009H238.101L238.163 52.5257Z" fill="#455A64"/>
<path d="M227.622 51.6452C227.622 51.6452 227.622 51.6452 227.622 51.7134C227.622 51.7816 227.622 51.8313 227.622 51.9119C227.622 51.9925 227.622 52.1165 227.665 52.2467C227.709 52.3769 227.721 52.5257 227.758 52.6931C227.859 53.1014 228.015 53.4937 228.224 53.8589C228.507 54.3444 228.887 54.7665 229.34 55.099C230.594 55.9194 232.089 56.2889 233.581 56.1469C234.469 56.1035 235.35 55.9664 236.21 55.7377C237.148 55.5026 238.049 55.1396 238.889 54.6588L239.056 54.5595H238.864C237.786 54.4074 236.74 54.0851 235.764 53.6046H235.708L235.664 53.7349C237.855 54.0881 240.101 53.6858 242.032 52.5939L242.163 52.5195L242.02 52.4761C240.658 52.0663 239.379 51.4175 238.244 50.5601C237.357 49.8846 236.675 48.9768 236.272 47.9372C236.039 47.251 235.929 46.5287 235.95 45.8042C235.95 45.5624 235.981 45.3702 235.993 45.2276V45.0539V45.0043C235.994 45.0208 235.994 45.0374 235.993 45.0539V45.2028C235.993 45.3392 235.956 45.5314 235.925 45.7794C235.889 46.5125 235.988 47.2459 236.216 47.9434C236.629 49.0133 237.333 49.9457 238.25 50.6345C239.394 51.5043 240.683 52.1655 242.057 52.5877V52.4699C240.149 53.5402 237.936 53.9335 235.776 53.586L235.298 53.5054L235.733 53.7163H235.788C236.765 54.1994 237.811 54.5258 238.889 54.6836V54.5533C238.058 55.0277 237.168 55.3885 236.241 55.6261C235.392 55.8551 234.521 55.9923 233.643 56.0353C232.177 56.1836 230.704 55.8317 229.464 55.037C229.012 54.7052 228.634 54.2828 228.354 53.7969C228.146 53.4357 227.984 53.0504 227.87 52.6497C227.833 52.4823 227.796 52.3397 227.771 52.2095C227.746 52.0793 227.734 51.9677 227.715 51.8809C227.696 51.7941 227.715 51.732 227.684 51.6824C227.665 51.6682 227.644 51.6558 227.622 51.6452Z" fill="#455A64"/>
<path d="M242.739 71.7725C242.776 71.7725 242.33 67.8289 241.741 62.98C241.152 58.1311 240.637 54.1999 240.6 54.1999C240.563 54.1999 241.009 58.1435 241.598 62.9924C242.187 67.8413 242.696 71.7725 242.739 71.7725Z" fill="#455A64"/>
<path d="M227.808 127.417C227.224 127.297 226.622 127.299 226.039 127.424C225.456 127.549 224.906 127.794 224.422 128.143C222.885 129.271 220.249 130.772 217.602 130.251C213.491 129.439 211.258 125.582 212.176 120.95C213.094 116.318 216.61 113.553 220.727 114.365C223.387 114.886 225.259 117.267 226.258 118.897C226.574 119.401 226.99 119.834 227.481 120.17C227.972 120.506 228.526 120.738 229.11 120.851C229.674 120.962 230.253 120.96 230.816 120.847C231.379 120.734 231.915 120.511 232.391 120.191C232.868 119.871 233.277 119.46 233.595 118.981C233.913 118.503 234.134 117.967 234.244 117.403L238.808 89.959L195.825 82.45L166.446 77.3593L161.858 103.402C161.393 105.771 163.383 107.873 165.752 108.363C166.335 108.482 166.937 108.479 167.519 108.353C168.1 108.227 168.65 107.981 169.131 107.631C170.669 106.502 173.31 105.002 175.952 105.523C180.069 106.335 182.301 110.192 181.384 114.855C180.466 119.518 176.944 122.252 172.827 121.44C170.173 120.919 168.294 118.538 167.296 116.907C166.98 116.402 166.564 115.968 166.073 115.631C165.583 115.294 165.028 115.061 164.443 114.948C163.88 114.833 163.3 114.832 162.736 114.944C162.172 115.056 161.636 115.279 161.159 115.599C160.682 115.92 160.273 116.332 159.957 116.812C159.64 117.292 159.422 117.83 159.316 118.395L153.809 149.064L197.04 156.672L222.401 161.136L225.501 161.688L231.237 132.589C231.358 132.023 231.365 131.44 231.257 130.872C231.149 130.304 230.929 129.763 230.61 129.282C230.291 128.8 229.878 128.387 229.397 128.067C228.916 127.747 228.376 127.526 227.808 127.417Z" fill="#455A64"/>
<path d="M184.992 109.987C184.999 109.832 184.973 109.678 184.916 109.533C184.859 109.389 184.773 109.258 184.662 109.149C184.552 109.04 184.42 108.955 184.275 108.9C184.13 108.844 183.976 108.82 183.821 108.828C183.461 108.828 182.996 108.871 182.425 108.927C180.943 109.076 176.56 111.234 176.442 112.102C176.362 112.412 176.364 112.738 176.448 113.048C176.532 113.358 176.694 113.64 176.919 113.869C176.919 113.869 176.064 115.004 176.374 115.946C176.646 116.746 177.936 117.025 177.936 117.025C177.936 117.025 176.981 118.135 177.936 118.929C178.277 119.201 178.965 119.728 179.12 119.908C179.183 120.146 179.275 120.375 179.393 120.59C179.608 120.893 179.886 121.145 180.207 121.331C180.527 121.517 180.884 121.633 181.253 121.669H181.502C181.977 121.716 182.452 121.579 182.828 121.285C184.54 119.976 189.389 116.182 189.482 115.128C189.482 115.128 190.406 114.408 190.046 113.658C189.686 112.908 188.304 113.23 188.304 113.23C188.492 113.079 188.627 112.872 188.689 112.639C188.752 112.406 188.738 112.159 188.651 111.934C188.335 111.141 185.885 111.209 184.775 111.358C183.889 111.469 181.421 111.872 181.421 111.872C181.421 111.872 184.707 110.744 184.899 110.186C184.939 110.124 184.97 110.057 184.992 109.987Z" fill="#FFBF9D"/>
<path d="M189.531 115.152C189.428 115.23 189.318 115.299 189.203 115.357C188.986 115.475 188.67 115.642 188.267 115.841C187.473 116.237 186.344 116.734 185.079 117.223C183.814 117.713 182.643 118.104 181.793 118.377C181.371 118.513 181.03 118.612 180.789 118.687C180.667 118.726 180.543 118.757 180.417 118.78C180.533 118.724 180.653 118.676 180.776 118.637L181.768 118.296C182.612 118.005 183.765 117.595 185.036 117.112C186.307 116.628 187.423 116.138 188.229 115.766L189.184 115.314C189.296 115.252 189.412 115.198 189.531 115.152Z" fill="#FF9A6C"/>
<path d="M188.502 113.224C188.386 113.264 188.265 113.291 188.143 113.305C187.913 113.348 187.578 113.41 187.163 113.503C186.338 113.683 185.216 113.993 183.988 114.383C183.368 114.576 182.785 114.749 182.258 114.929C181.731 115.109 181.266 115.307 180.882 115.469C180.497 115.63 180.187 115.785 179.97 115.884C179.864 115.945 179.751 115.994 179.635 116.033L179.716 115.977L179.951 115.841C180.156 115.729 180.46 115.568 180.844 115.394C181.229 115.221 181.694 115.016 182.221 114.824C182.748 114.631 183.337 114.458 183.951 114.266C185.002 113.927 186.07 113.644 187.15 113.416C187.56 113.336 187.901 113.286 188.136 113.255L188.502 113.224Z" fill="#FF9A6C"/>
<path d="M181.471 111.897C181.305 112.009 181.129 112.102 180.943 112.176C180.609 112.331 180.137 112.529 179.617 112.746C179.096 112.963 178.637 113.168 178.302 113.323C178.125 113.415 177.943 113.496 177.756 113.565C177.912 113.438 178.083 113.332 178.265 113.249C178.688 113.016 179.125 112.809 179.573 112.629C180.094 112.412 180.565 112.226 180.906 112.089C181.088 112.009 181.277 111.945 181.471 111.897Z" fill="#FF9A6C"/>
<path d="M187.988 117.075C187.922 117.168 187.847 117.255 187.764 117.335C187.609 117.49 187.38 117.713 187.088 117.955C186.506 118.494 185.662 119.195 184.745 119.958C184.521 120.15 184.304 120.355 184.075 120.528C183.862 120.702 183.639 120.861 183.405 121.006C183.011 121.258 182.58 121.446 182.128 121.564C181.823 121.646 181.506 121.673 181.192 121.644C181.106 121.641 181.021 121.63 180.937 121.613H180.851C180.964 121.606 181.078 121.606 181.192 121.613C181.5 121.621 181.808 121.579 182.103 121.489C182.542 121.364 182.96 121.174 183.343 120.925C183.571 120.778 183.79 120.619 184.001 120.448C184.224 120.274 184.435 120.076 184.664 119.877C185.582 119.096 186.437 118.42 187.033 117.905L187.727 117.285C187.809 117.209 187.896 117.138 187.988 117.075Z" fill="#FF9A6C"/>
<path d="M236.607 127.312C236.607 127.312 235.069 125.662 233.773 125.396C232.477 125.129 230.673 125.359 230.369 125.135C230.065 124.912 229.383 124.032 228.769 124.577C228.155 125.123 227.163 127.299 229.786 128.366L231.646 128.67C231.401 129.547 231.027 130.383 230.536 131.15C229.966 131.813 222.296 138.795 222.296 138.795C222.296 138.795 221.372 139.465 221.638 140.327C221.905 141.189 223.685 141.009 223.685 141.009C223.982 141.369 224.365 141.647 224.799 141.818C225.232 141.99 225.702 142.048 226.165 141.989C226.881 141.862 227.58 141.654 228.248 141.369C228.634 141.777 229.144 142.047 229.698 142.138C230.253 142.228 230.822 142.135 231.318 141.871C233.103 140.935 240.718 134.139 240.718 134.139L238.802 127.386L236.607 127.312Z" fill="#FFBF9D"/>
<path d="M238.386 125.985L236.477 127.318C238.845 129.705 240.643 131.826 240.154 134.691L243.837 133.196C243.837 133.196 244.153 127.467 238.386 125.985Z" fill="#FFBF9D"/>
<path d="M229.47 137.208C228.748 138.115 227.868 138.884 226.872 139.478C225.935 140.156 224.886 140.662 223.771 140.972C223.734 140.879 225.129 140.246 226.698 139.205C228.267 138.163 229.402 137.14 229.47 137.208Z" fill="#FF9A6C"/>
<path d="M232.142 138.684C231.653 139.447 231.018 140.105 230.273 140.622C229.528 141.138 228.688 141.501 227.802 141.691C227.771 141.598 228.887 141.189 230.078 140.352C231.268 139.515 232.049 138.634 232.142 138.684Z" fill="#FF9A6C"/>
<path d="M122.713 92.0425L125.045 90.6474L128.114 98.9191L125.627 100.457L122.713 92.0425Z" fill="#F5F5F5"/>
<path d="M81.8755 38.6921C81.7427 35.4862 80.4088 32.4477 78.1388 30.18C75.8689 27.9124 72.829 26.5815 69.623 26.452H68.9657C61.8102 26.5698 57.9224 32.7146 58.2386 39.8578L59.1439 68.6288L70.4477 72.9693L74.8191 68.9513C74.8191 66.936 74.8191 62.7506 74.8625 62.7506C74.906 62.7506 81.7639 61.9693 82.1297 55.1176C82.3095 51.7382 82.1173 44.8865 81.8755 38.6921Z" fill="#FFBF9D"/>
<path d="M74.8628 62.6824C71.6941 62.5468 68.6312 61.5029 66.0393 59.6751C66.0393 59.6751 67.9739 64.9209 74.8442 64.586L74.8628 62.6824Z" fill="#FF9A6C"/>
<path d="M79.5133 44.6075C79.5068 44.8635 79.3996 45.1067 79.2151 45.2843C79.0305 45.4618 78.7834 45.5595 78.5274 45.5562C78.4024 45.5621 78.2776 45.5425 78.1605 45.4987C78.0433 45.4549 77.9363 45.3878 77.8458 45.3014C77.7554 45.2151 77.6834 45.1112 77.6343 44.9962C77.5852 44.8812 77.5599 44.7574 77.5601 44.6323C77.5666 44.3774 77.6728 44.1351 77.856 43.9577C78.0392 43.7803 78.2847 43.6819 78.5398 43.6836C78.6648 43.6786 78.7895 43.6987 78.9066 43.7428C79.0237 43.7868 79.1308 43.8539 79.2216 43.94C79.3123 44.0261 79.3849 44.1296 79.435 44.2442C79.4851 44.3589 79.5117 44.4824 79.5133 44.6075Z" fill="#263238"/>
<path d="M80.2945 41.6622C80.1643 41.7862 79.445 41.2034 78.3909 41.1662C77.3368 41.129 76.5307 41.6188 76.4377 41.4824C76.3447 41.346 76.5183 41.1972 76.8655 40.9677C77.3328 40.67 77.881 40.5248 78.4343 40.5523C78.9832 40.5732 79.511 40.7687 79.9411 41.1104C80.2573 41.3708 80.3565 41.6064 80.2945 41.6622Z" fill="#263238"/>
<path d="M70.3486 44.6075C70.3405 44.863 70.2329 45.1052 70.0487 45.2825C69.8645 45.4597 69.6183 45.5579 69.3627 45.5562C69.2377 45.5612 69.1129 45.5411 68.9958 45.497C68.8787 45.453 68.7716 45.3859 68.6809 45.2998C68.5901 45.2137 68.5175 45.1102 68.4674 44.9956C68.4173 44.8809 68.3907 44.7574 68.3892 44.6323C68.3988 44.3773 68.5069 44.136 68.6908 43.9591C68.8746 43.7822 69.1199 43.6834 69.3751 43.6836C69.5001 43.6786 69.6248 43.6987 69.7419 43.7428C69.859 43.7868 69.9661 43.8539 70.0569 43.94C70.1476 44.0261 70.2202 44.1296 70.2703 44.2442C70.3204 44.3589 70.347 44.4824 70.3486 44.6075Z" fill="#263238"/>
<path d="M69.9518 41.4824C69.8278 41.6002 69.1085 41.0235 68.0544 40.9801C67.0003 40.9367 66.1942 41.439 66.095 41.3025C65.9958 41.1661 66.1756 41.0173 66.5228 40.7879C66.9923 40.49 67.5425 40.3449 68.0978 40.3724C68.645 40.3965 69.1713 40.5893 69.6046 40.9243C69.9146 41.1909 70.0138 41.4266 69.9518 41.4824Z" fill="#263238"/>
<path d="M73.3994 49.7354C73.9613 49.5816 74.5406 49.5003 75.1232 49.4936C75.396 49.4936 75.6502 49.4378 75.706 49.2518C75.7378 48.9763 75.6859 48.6976 75.5572 48.4519C75.334 47.7884 75.0922 47.094 74.8441 46.3685C73.8582 43.4046 73.1575 40.9739 73.2816 40.9305C73.4056 40.8871 74.2923 43.262 75.2782 46.2259C75.5138 46.9576 75.7432 47.652 75.954 48.3217C76.1134 48.6517 76.1486 49.0281 76.0533 49.382C76.0095 49.4751 75.9457 49.5573 75.8664 49.6227C75.787 49.6881 75.6941 49.7351 75.5944 49.7602C75.4435 49.7912 75.2896 49.8057 75.1356 49.8037C74.5562 49.851 73.9732 49.8281 73.3994 49.7354Z" fill="#263238"/>
<path d="M70.4293 38.196C70.2742 38.4627 69.2635 38.134 68.0234 38.0596C66.7833 37.9852 65.7292 38.1278 65.6175 37.8488C65.5679 37.7124 65.785 37.4768 66.2376 37.2783C66.8284 37.0407 67.4657 36.9411 68.1008 36.9873C68.7359 37.0335 69.352 37.2243 69.9022 37.545C70.3176 37.8116 70.4975 38.072 70.4293 38.196Z" fill="#263238"/>
<path d="M80.4681 38.5681C80.2449 38.7975 79.3954 38.5309 78.3599 38.4875C77.3244 38.4441 76.4501 38.5991 76.2579 38.3448C76.1711 38.2208 76.3137 37.9852 76.7044 37.7682C77.2387 37.5086 77.8302 37.389 78.4234 37.4204C79.0167 37.4519 79.5922 37.6334 80.0961 37.948C80.4558 38.2332 80.5674 38.4502 80.4681 38.5681Z" fill="#263238"/>
<path d="M58.5922 44.9051C58.4744 44.8493 53.9355 43.3177 53.8921 48.0054C53.8487 52.6931 58.5674 51.7754 58.5798 51.639C58.5922 51.5026 58.5922 44.9051 58.5922 44.9051Z" fill="#FFBF9D"/>
<path d="M57.1907 49.8533C57.1907 49.8533 57.1101 49.9091 56.9737 49.9711C56.8757 50.0127 56.7702 50.0342 56.6637 50.0342C56.5572 50.0342 56.4517 50.0127 56.3537 49.9711C56.0518 49.7769 55.8075 49.5054 55.6461 49.1848C55.4847 48.8642 55.4121 48.5063 55.436 48.1481C55.427 47.7469 55.5075 47.3487 55.6716 46.9824C55.7183 46.8373 55.799 46.7053 55.9068 46.5975C56.0146 46.4897 56.1465 46.4091 56.2917 46.3623C56.3855 46.3403 56.484 46.351 56.5709 46.3927C56.6578 46.4345 56.7277 46.5047 56.7691 46.5918C56.8311 46.7282 56.7691 46.8212 56.8249 46.8274C56.8807 46.8336 56.9241 46.7468 56.8931 46.5546C56.8669 46.437 56.8013 46.332 56.7071 46.2569C56.5799 46.1595 56.4199 46.115 56.2606 46.1329C56.0667 46.1695 55.8855 46.2555 55.7345 46.3826C55.5835 46.5096 55.4679 46.6735 55.3988 46.8584C55.1944 47.2615 55.0922 47.7087 55.1011 48.1605C55.1011 49.1092 55.5972 50.0207 56.273 50.2005C56.399 50.2381 56.5317 50.2471 56.6615 50.2267C56.7914 50.2063 56.915 50.1571 57.0233 50.0827C57.1535 49.9649 57.1907 49.8657 57.1907 49.8533Z" fill="#FF9A6C"/>
<path d="M70.0881 50.3865C70.2493 50.3865 70.2555 51.453 71.1856 52.2467C72.1157 53.0404 73.2566 52.8668 73.2628 53.0342C73.269 53.2016 73.0086 53.245 72.5249 53.2574C71.891 53.2632 71.2756 53.0434 70.7888 52.6374C70.3173 52.2566 70.0126 51.7073 69.9393 51.1058C69.8959 50.6346 70.0137 50.3803 70.0881 50.3865Z" fill="#263238"/>
<path d="M91.3503 32.5162C91.267 32.2499 91.0821 32.0271 90.8357 31.8962C90.2908 31.6391 89.6871 31.5321 89.0871 31.5862C87.5912 31.5437 86.1252 31.1575 84.8024 30.4576C85.2687 30.2362 85.6976 29.9433 86.0736 29.5895C86.4784 29.2267 86.775 28.759 86.9304 28.2381C87.0858 27.7171 87.094 27.1633 86.954 26.638C86.9354 26.539 86.8929 26.4461 86.8302 26.3672C86.7675 26.2884 86.6866 26.2259 86.5944 26.1854C86.2906 26.0862 86.0177 26.3838 85.8007 26.6194C85.5257 26.9836 85.1579 27.2671 84.7357 27.4406C84.3136 27.614 83.8527 27.6709 83.4011 27.6053C82.776 27.5571 82.1698 27.3685 81.6277 27.0535C81.6039 27.0338 81.583 27.0109 81.5657 26.9853L80.8588 26.2536C79.1102 24.4802 77.6035 23.2525 76.0471 22.6014C73.7653 21.6527 69.9395 21.2373 67.5398 21.8387C65.1401 22.4402 62.9761 24.319 62.6165 26.7992C61.2895 25.6459 59.2743 25.6335 57.656 26.2722H57.6126C55.7896 26.8923 54.7354 28.8083 54.1774 30.6561C54.1774 30.7553 54.1216 30.8607 54.0906 30.9599C53.4654 31.935 52.6147 32.7453 51.6103 33.3223C51.4367 33.4215 51.2321 33.5456 51.2073 33.7502C51.2161 33.8498 51.2489 33.9459 51.3029 34.0301C51.3569 34.1143 51.4304 34.1842 51.5173 34.2338C51.9542 34.5446 52.4536 34.7562 52.9807 34.8539C52.8092 35.284 52.6018 35.6988 52.3606 36.094C52.156 36.4413 51.908 36.8567 52.0816 37.2163C52.1544 37.3526 52.267 37.4635 52.4043 37.5344C52.5416 37.6052 52.6972 37.6327 52.8504 37.6132C53.1563 37.5493 53.4456 37.4226 53.6999 37.2411L53.0799 38.6921C53.739 38.8079 54.416 38.7697 55.0579 38.5805C55.4237 40.3167 55.6779 43.541 56.112 44.7129C57.3521 44.7501 57.6622 44.6199 58.2884 44.8307C59.1007 45.1098 58.7721 46.5483 59.8324 46.1515C60.3718 45.9469 61.2275 43.9193 61.4136 43.3674C62.6529 39.7257 63.097 35.8605 62.7157 32.0326C63.4831 31.2489 64.392 30.6177 65.3944 30.1724L65.3138 30.2468C67.2422 29.6267 69.4186 28.9695 71.2292 29.8872C72.6367 30.6064 73.449 32.0822 74.4907 33.2603C75.3689 34.3385 76.4656 35.2181 77.7087 35.8412C78.9518 36.4644 80.3128 36.8168 81.7021 36.8753C81.9501 38.9463 81.9873 42.3381 82.0679 44.2727L83.7669 40.4221C83.9033 40.1927 84.0149 39.9632 84.1266 39.74L84.1638 39.6718C84.3291 39.2989 84.5132 38.9347 84.7156 38.5805C84.9431 38.7359 85.2159 38.8112 85.4909 38.7944C85.7659 38.7776 86.0275 38.6697 86.2344 38.4877C86.4413 38.3057 86.5816 38.06 86.6334 37.7894C86.6851 37.5187 86.6452 37.2386 86.52 36.9931C86.3608 36.758 86.1663 36.5488 85.9433 36.3731C86.1771 36.6062 86.4676 36.7745 86.7861 36.8615C87.1046 36.9485 87.4403 36.9511 87.7601 36.8691C88.0728 36.7718 88.345 36.5749 88.5354 36.3085C88.7257 36.042 88.8236 35.7207 88.8142 35.3934C88.7924 35.1705 88.7121 34.9574 88.5814 34.7755C88.4508 34.5937 88.2744 34.4496 88.0702 34.3578C88.9291 34.4386 89.7926 34.2616 90.5504 33.8494C91.0279 33.5766 91.5115 33.1301 91.3503 32.5162Z" fill="#263238"/>
<path d="M64.768 27.6115C64.5203 27.7992 64.288 28.0066 64.0736 28.2316C63.5237 28.882 63.1519 29.6639 62.9947 30.501C62.8676 31.0732 62.8011 31.6573 62.7962 32.2434C62.7962 32.8635 62.8334 33.5579 62.8706 34.271C62.9175 35.0206 62.9175 35.7723 62.8706 36.5218C62.8453 36.9224 62.7894 37.3204 62.7032 37.7124C62.6369 38.1304 62.4663 38.5249 62.2072 38.8595C62.0862 38.992 61.9329 39.0909 61.7622 39.1463C61.5916 39.2017 61.4094 39.2119 61.2337 39.1757C60.8979 39.1057 60.5936 38.9296 60.3656 38.6735C60.0093 38.1527 59.7955 37.5477 59.7455 36.9187H59.8943C59.6809 37.4336 59.3925 37.9142 59.0386 38.3448C58.6998 38.7483 58.2172 39.0041 57.6931 39.0579C57.4501 39.0785 57.206 39.0335 56.9862 38.9277C56.787 38.8165 56.6236 38.6509 56.515 38.4503C56.4105 38.2609 56.3611 38.0461 56.3724 37.8302C56.3844 37.6311 56.4655 37.4425 56.6018 37.2969L56.67 37.3651C56.2569 37.8302 55.7496 38.2022 55.1818 38.4565C54.9896 38.5433 54.8284 38.5929 54.723 38.6301C54.6703 38.6467 54.6164 38.6591 54.5618 38.6673L54.7168 38.5991C54.816 38.5619 54.971 38.4999 55.1632 38.4068C55.7116 38.1386 56.2007 37.7633 56.6018 37.3031L56.67 37.3651C56.5542 37.5081 56.4865 37.684 56.4765 37.8677C56.4665 38.0514 56.5147 38.2335 56.6142 38.3882C56.714 38.5665 56.8624 38.7127 57.042 38.8099C57.2357 38.8999 57.4492 38.9383 57.6621 38.9215C58.1463 38.8617 58.5896 38.6201 58.9022 38.2456C59.2426 37.8214 59.5184 37.3492 59.7207 36.8443L59.8261 36.6273L59.8695 36.8629C59.9237 37.4681 60.1377 38.048 60.4896 38.5433C60.6925 38.7724 60.9646 38.9291 61.2647 38.9897C61.4144 39.0219 61.5699 39.0143 61.7158 38.9675C61.8616 38.9207 61.9926 38.8364 62.0956 38.7231C62.3374 38.4105 62.4954 38.0412 62.5544 37.6504C62.6375 37.2683 62.6934 36.8808 62.7218 36.4908C62.7686 35.7454 62.7686 34.9978 62.7218 34.2524C62.6846 33.5393 62.6474 32.8573 62.666 32.2186C62.6767 31.6236 62.7494 31.0313 62.883 30.4514C63.0538 29.6109 63.443 28.8303 64.0116 28.1882C64.2276 27.9527 64.4837 27.7574 64.768 27.6115Z" fill="#455A64"/>
<path d="M85.9495 34.5128L85.8937 34.5562L85.7201 34.6802C85.6265 34.7477 85.5292 34.8098 85.4287 34.8663C85.2919 34.9439 85.1512 35.0143 85.007 35.0771C84.0823 35.4864 83.0695 35.657 82.0617 35.5731C80.5615 35.4601 79.1266 34.9128 77.9321 33.9982C76.4897 32.8695 75.2933 31.4578 74.4163 29.8499C73.9265 29.0128 73.5234 28.1572 73.0894 27.3697C72.6867 26.5993 72.1773 25.8896 71.5764 25.2614C71.036 24.6892 70.3599 24.2627 69.6108 24.0213C69.2724 23.9243 68.921 23.8804 68.5691 23.8911C68.2424 23.9058 67.9192 23.9642 67.608 24.0647C67.0733 24.243 66.5814 24.5301 66.1632 24.908C65.8501 25.1959 65.5862 25.5332 65.3819 25.9063C65.215 26.2317 65.092 26.5779 65.0161 26.9356C65.0161 26.9356 65.0161 26.9356 65.0161 26.8612C65.0161 26.7868 65.0161 26.7372 65.0471 26.6504C65.1069 26.3821 65.1985 26.1219 65.3199 25.8753C65.5201 25.4904 65.7843 25.1423 66.1012 24.846C66.5237 24.4539 67.0246 24.1559 67.5708 23.9717C67.8919 23.8665 68.2255 23.804 68.5629 23.7857C68.9292 23.7719 69.2954 23.8158 69.648 23.9159C70.4187 24.1533 71.1179 24.5796 71.6818 25.156C72.2949 25.7926 72.8147 26.5128 73.2258 27.2953C73.6722 28.0889 74.0691 28.9446 74.5527 29.7755C75.4232 31.3645 76.6015 32.7641 78.0189 33.8928C79.1894 34.7965 80.5947 35.3452 82.0679 35.4739C83.0606 35.5635 84.0603 35.4125 84.9822 35.0337C85.314 34.878 85.6369 34.7041 85.9495 34.5128Z" fill="#455A64"/>
<path d="M86.6068 31.5241C86.6068 31.5241 86.5262 31.5923 86.3588 31.6916C86.1247 31.8323 85.8801 31.9546 85.6271 32.0574C85.2514 32.2112 84.8635 32.3335 84.4676 32.4232C83.9795 32.5246 83.4838 32.5848 82.9856 32.6031C82.4871 32.6069 81.9892 32.5675 81.4975 32.4852C81.0984 32.4113 80.7063 32.3034 80.3255 32.1628C80.0696 32.0721 79.8209 31.9622 79.5815 31.8342C79.4874 31.7931 79.3997 31.7388 79.321 31.673C79.321 31.673 79.7117 31.8466 80.3628 32.0574C80.7439 32.1792 81.1335 32.2725 81.5285 32.3364C82.0105 32.4115 82.4978 32.4467 82.9856 32.4418C83.4731 32.4271 83.9585 32.3711 84.4366 32.2744C84.8263 32.1949 85.2096 32.0871 85.5837 31.952C86.2224 31.7102 86.5944 31.4993 86.6068 31.5241Z" fill="#455A64"/>
<path d="M79.1412 246.575L79.2404 259.876C79.2404 259.876 92.7889 264.216 93.0493 266.696L67.267 267.812L66.2625 247.096L79.1412 246.575Z" fill="#263238"/>
<path d="M71.2167 259.119C70.9714 259.207 70.7669 259.382 70.6422 259.61C70.5176 259.839 70.4815 260.106 70.5408 260.359C70.6185 260.612 70.7913 260.824 71.0228 260.952C71.2542 261.079 71.5261 261.111 71.781 261.041C72.0401 260.949 72.2562 260.765 72.3878 260.524C72.5194 260.282 72.5572 260.001 72.494 259.733C72.3882 259.481 72.1884 259.281 71.9371 259.175C71.6858 259.068 71.4029 259.064 71.1485 259.163" fill="#E0E0E0"/>
<path d="M67.2671 267.831V265.742L91.9953 265.45C91.9953 265.45 93.161 265.903 93.068 266.69L67.2671 267.831Z" fill="#455A64"/>
<path d="M79.6496 259.745C79.6496 259.869 79.0295 259.956 78.4094 260.366C77.7894 260.775 77.5041 261.339 77.3863 261.296C77.2685 261.252 77.4235 260.514 78.1614 260.006C78.8993 259.497 79.6744 259.628 79.6496 259.745Z" fill="white"/>
<path d="M82.4027 260.744C82.4399 260.868 81.9004 261.103 81.4974 261.655C81.0943 262.207 80.9951 262.771 80.8773 262.771C80.7595 262.771 80.6417 262.064 81.1626 261.389C81.6834 260.713 82.3965 260.626 82.4027 260.744Z" fill="white"/>
<path d="M84.077 263.937C83.9654 263.968 83.7669 263.348 84.077 262.647C84.387 261.947 84.9451 261.643 85.0071 261.742C85.0691 261.841 84.7156 262.232 84.48 262.815C84.2444 263.398 84.2072 263.894 84.077 263.937Z" fill="white"/>
<path d="M79.29 256.713C79.2466 256.831 78.6699 256.682 77.9507 256.763C77.2314 256.844 76.7105 257.092 76.6237 256.986C76.5369 256.881 77.0702 256.409 77.9073 256.323C78.7444 256.236 79.352 256.614 79.29 256.713Z" fill="white"/>
<path d="M49.2479 249.421L47.8465 265.456L50.4012 278.478C50.4446 278.7 50.4419 278.928 50.3933 279.149C50.3447 279.37 50.2512 279.578 50.1186 279.761C49.986 279.945 49.8172 280.098 49.6226 280.214C49.428 280.329 49.2118 280.403 48.9874 280.431C48.7264 280.464 48.4611 280.434 48.214 280.344C47.9669 280.253 47.7452 280.104 47.5675 279.91C45.2733 277.43 36.859 268.129 37.0264 266.969C37.2186 265.618 37.3736 249.967 37.3736 249.967L49.2479 249.421Z" fill="#263238"/>
<path d="M48.9874 280.406L37.0945 265.865L37.0511 266.541C37.0121 267.129 37.1835 267.712 37.5348 268.185C38.4773 269.425 41.1559 272.885 47.524 279.885C47.7057 280.086 47.9346 280.239 48.19 280.33C48.4454 280.421 48.7194 280.447 48.9874 280.406Z" fill="#455A64"/>
<g opacity="0.6">
<path d="M40.7219 260.893C40.9103 261.051 41.0335 261.274 41.0679 261.517C41.1022 261.761 41.0453 262.009 40.908 262.213C40.7579 262.407 40.539 262.536 40.2966 262.573C40.0542 262.61 39.8068 262.552 39.6058 262.412C39.4074 262.244 39.278 262.008 39.2425 261.751C39.2071 261.493 39.268 261.232 39.4136 261.017C39.5903 260.829 39.8333 260.719 40.0905 260.708C40.3477 260.698 40.5988 260.789 40.7901 260.961" fill="white"/>
</g>
<path d="M45.7691 273.151C46.1906 272.674 46.7001 272.283 47.2697 271.998C47.8687 271.8 48.5004 271.72 49.1299 271.762C49.1299 271.719 48.95 271.582 48.578 271.508C48.087 271.418 47.5804 271.474 47.1208 271.669C46.6539 271.864 46.2563 272.194 45.9799 272.618C45.7691 272.903 45.7257 273.139 45.7691 273.151Z" fill="white"/>
<path d="M46.7738 275.377C47.2511 275.142 47.7418 274.935 48.2433 274.757C48.7682 274.696 49.296 274.663 49.8245 274.658C49.5872 274.488 49.3123 274.377 49.0231 274.334C48.7339 274.292 48.4388 274.32 48.1627 274.416C47.1954 274.652 46.6932 275.328 46.7738 275.377Z" fill="white"/>
<path d="M43.8162 270.262C44.5258 269.847 45.2658 269.486 46.0298 269.183C46.8247 268.988 47.633 268.854 48.4481 268.78C47.6168 268.562 46.7408 268.586 45.9227 268.849C45.1045 269.111 44.3781 269.601 43.8286 270.262H43.8162Z" fill="white"/>
<path d="M43.8347 265.351C43.8719 265.45 44.7834 265.14 45.9367 265.171C47.0901 265.202 47.9892 265.537 48.0326 265.444C47.4325 264.994 46.6912 264.774 45.9429 264.824C45.2003 264.749 44.4547 264.935 43.8347 265.351Z" fill="white"/>
<path d="M44.126 260.638C44.8382 260.453 45.5731 260.369 46.3087 260.39C47.0346 260.517 47.7398 260.742 48.4045 261.06C48.4045 261.029 48.2681 260.812 47.9146 260.576C47.4412 260.276 46.9038 260.091 46.3459 260.037C45.7882 259.978 45.2245 260.055 44.7027 260.26C44.3059 260.421 44.1012 260.601 44.126 260.638Z" fill="white"/>
<path d="M46.3396 259.491C46.4029 259.291 46.424 259.08 46.4016 258.871C46.3829 258.309 46.2522 257.757 46.0172 257.247C45.8802 256.859 45.6185 256.527 45.2731 256.304C45.1521 256.241 45.0146 256.216 44.8792 256.234C44.7438 256.252 44.6172 256.311 44.5166 256.403C44.3356 256.595 44.23 256.846 44.219 257.11C44.2199 257.652 44.4099 258.176 44.7563 258.593C45.1028 259.01 45.5838 259.292 46.1164 259.392C46.6448 259.482 47.1879 259.412 47.6762 259.191C48.1645 258.97 48.5757 258.608 48.8571 258.152C48.9289 258.038 48.9749 257.909 48.992 257.775C49.0092 257.641 48.997 257.505 48.9563 257.377C48.9002 257.252 48.8068 257.149 48.689 257.08C48.5712 257.011 48.4349 256.98 48.299 256.992C47.8974 257.052 47.5187 257.216 47.2015 257.47C46.7424 257.788 46.3453 258.187 46.0296 258.648C45.899 258.807 45.802 258.99 45.7444 259.187C46.2031 258.611 46.7418 258.104 47.3441 257.681C47.628 257.473 47.9576 257.337 48.3052 257.284C48.38 257.274 48.4559 257.29 48.521 257.328C48.5861 257.366 48.6367 257.425 48.6649 257.495C48.6859 257.58 48.6885 257.669 48.6725 257.756C48.6564 257.842 48.6221 257.925 48.5719 257.997C48.3167 258.382 47.9558 258.686 47.5325 258.872C47.1091 259.058 46.6411 259.118 46.1846 259.045C45.735 258.959 45.3276 258.724 45.0291 258.377C44.7306 258.03 44.5587 257.592 44.5414 257.135C44.5457 256.948 44.6135 256.769 44.7336 256.626C44.7879 256.574 44.8575 256.54 44.9322 256.53C45.007 256.52 45.083 256.534 45.1491 256.571C45.4308 256.764 45.647 257.039 45.7692 257.358C46.0839 258.03 46.277 258.752 46.3396 259.491Z" fill="white"/>
<path d="M92.7764 136.334C94.0161 141.843 94.434 147.506 94.0166 153.138C93.7375 156.709 81.6897 255.504 81.6897 255.504H65.4254L69.9952 162.649L68.6683 162.941C68.6683 162.941 59.7828 202.551 59.0511 208.956C58.431 214.716 50.4322 260.018 50.4322 260.018L35.0793 259.851L40.7902 201.379L46.3211 148.239L48.3984 132.737L92.7764 136.334Z" fill="#263238"/>
<path d="M122.732 90.6474L106.926 98.4664L97.9849 75.1768C97.171 73.1835 95.8842 71.4183 94.2357 70.0334C92.5872 68.6485 90.6265 67.6855 88.5227 67.2275C87.9832 67.1149 87.436 67.0423 86.8857 67.0105L93.2786 104.214C94.5343 107.258 96.2035 110.115 98.2391 112.703C99.5723 114.309 102.226 115.996 108.098 114.154L126.985 101.511L122.732 90.6474Z" fill="#263238"/>
<path d="M58.3379 62.4778L66.1631 68.9823L70.1564 72.0826L72.1778 71.7974L73.2939 68.7466L74.8006 62.8002L76.9089 65.5843L82.6135 77.6942L89.0187 136.272C89.0187 136.272 77.8576 139.546 72.0662 139.936C66.2747 140.327 57.0668 138.752 57.0668 138.752V107.929L53.7866 77.4028L57.7488 65.7083L58.3379 62.4778Z" fill="#F5F5F5"/>
<path d="M74.875 139.546C74.8672 139.492 74.8672 139.438 74.875 139.385C74.875 139.261 74.875 139.106 74.875 138.901C74.875 138.461 74.8378 137.841 74.8068 137.041C74.751 135.41 74.6765 133.085 74.5773 130.22C74.3789 124.453 74.0627 116.492 73.61 107.705C73.1574 98.9191 72.6427 90.9636 72.2459 85.2094L71.7746 78.3887C71.7188 77.595 71.6754 76.9749 71.6506 76.5285C71.6506 76.3239 71.6506 76.1689 71.6506 76.0449C71.6506 75.9208 71.6506 75.8836 71.6506 75.8774C71.6573 75.9331 71.6573 75.9892 71.6506 76.0449C71.6506 76.1627 71.6506 76.3239 71.7064 76.5223C71.7436 76.9626 71.7994 77.5826 71.8738 78.3825C72.0165 79.9885 72.2087 82.3137 72.4257 85.2032C72.866 90.9512 73.3992 98.9005 73.8519 107.693C74.3045 116.486 74.5959 124.435 74.751 130.214C74.8316 133.097 74.8874 135.429 74.906 137.034C74.906 137.834 74.906 138.454 74.906 138.895V139.378C74.8812 139.49 74.875 139.546 74.875 139.546Z" fill="#263238"/>
<path d="M54.4626 68.4925L55.0206 68.1948L43.8594 74.042L48.0759 102.912L50.4197 117.794L41.6892 153.088C41.6892 153.088 48.2495 157.373 51.5358 156.529C53.2906 156.077 54.7912 152.549 55.9507 149.771C58.2715 144.23 59.7773 138.382 60.4214 132.409C61.0415 126.4 61.6615 118.767 61.2337 113.546C60.4152 103.83 59.1317 87.8013 59.0138 83.5848C58.896 79.3684 57.9039 63.8358 57.9039 63.8358L54.4626 68.4925Z" fill="#263238"/>
<path d="M75.0613 62.5212L81.5472 66.037L87.2394 67.0105L94.9158 83.8143L93.4524 114.197L101.116 151.705C101.116 151.705 95.4986 153.696 93.2726 152.877C91.0466 152.059 88.0082 147.024 87.8904 143.979C87.7726 140.935 83.4446 111.444 83.4446 111.444L79.7614 76.7765C79.4131 73.4712 78.4897 70.2522 77.0331 67.2647L75.0613 62.5212Z" fill="#263238"/>
<path d="M81.5471 67.0105C81.6211 67.0839 81.6895 67.1626 81.7517 67.2461L82.3346 67.953L84.48 70.6441L84.5234 70.6999L84.4676 70.7433L82.6446 72.126V71.9772L84.7839 72.6531H84.8459V72.7275C84.8087 76.5285 84.7591 81.3216 84.7032 86.5178C84.6102 92.861 84.5234 98.5966 84.4614 102.776C84.4242 104.841 84.387 106.496 84.3622 107.699C84.3622 108.263 84.3622 108.716 84.325 109.039C84.325 109.181 84.325 109.293 84.325 109.386C84.325 109.479 84.325 109.504 84.325 109.504C84.325 109.504 84.325 109.466 84.325 109.386C84.325 109.305 84.325 109.181 84.325 109.039C84.325 108.71 84.325 108.263 84.325 107.699C84.325 106.515 84.325 104.834 84.325 102.77C84.3684 98.5966 84.4242 92.8486 84.4924 86.5116C84.5668 81.3216 84.635 76.5285 84.6846 72.7213L84.7529 72.8143L82.626 72.1198L82.4648 72.0702L82.6012 71.971L84.4614 70.6069V70.7123L82.3656 67.984L81.8138 67.2523C81.7189 67.1786 81.6298 67.0977 81.5471 67.0105Z" fill="#455A64"/>
<path d="M60.7314 107.501C60.7111 107.466 60.6965 107.428 60.688 107.389L60.5763 107.048L60.1485 105.734C59.7765 104.599 59.2184 102.956 58.5053 100.934L57.3272 97.6356C56.8617 96.3758 56.4622 95.0926 56.1305 93.7912C55.4104 90.8054 54.8495 87.7835 54.4501 84.7382C53.8734 80.5217 53.4952 76.5409 53.272 73.1244V73.0748L53.3092 73.0376L55.1694 71.2642V71.413L53.4208 70.086L53.3588 70.0302L53.4084 69.962L56.5583 65.6898L57.4202 64.5365L57.6558 64.245C57.6803 64.2101 57.7073 64.177 57.7364 64.1458C57.7364 64.1458 57.7364 64.1892 57.6744 64.2574L57.4636 64.5675L56.6327 65.7518L53.5324 70.0922V69.9682L55.2872 71.2828L55.3802 71.351L55.2996 71.4254L53.4394 73.2174L53.4704 73.1306C53.7184 76.5471 54.0905 80.5218 54.7105 84.732C55.1055 87.7738 55.656 90.7933 56.3599 93.7787C56.7154 95.147 57.106 96.4244 57.5318 97.6107L58.6851 100.922C59.3796 102.95 59.9253 104.599 60.2539 105.746C60.4275 106.323 60.5577 106.769 60.6383 107.073C60.6756 107.216 60.7066 107.333 60.7252 107.42C60.7438 107.507 60.7314 107.501 60.7314 107.501Z" fill="#455A64"/>
<path d="M89.428 128.664L90.8231 132.998L98.7228 132.272L96.2611 128.124L89.428 128.664Z" fill="#263238"/>
<path d="M89.4343 128.664C89.4343 128.664 89.5893 128.664 89.9056 128.602L91.2883 128.465C92.4851 128.354 94.2088 128.192 96.2488 128.019H96.3108L96.3481 128.081L98.8283 132.217L98.9213 132.378H98.7353L98.3261 132.415L90.8357 133.103H90.7613V133.035C90.3334 131.677 90.0048 130.555 89.7816 129.823C89.6824 129.47 89.5955 129.203 89.5273 128.961C89.4962 128.866 89.4713 128.768 89.4529 128.67C89.5014 128.772 89.5429 128.878 89.5769 128.986L89.8808 129.86C90.1474 130.635 90.5008 131.721 90.9411 132.961L90.8419 132.892L98.3323 132.173L98.7353 132.136L98.6423 132.316L96.193 128.168L96.2922 128.223C94.2956 128.372 92.5719 128.478 91.3937 128.552L89.98 128.633C89.6265 128.664 89.4343 128.67 89.4343 128.664Z" fill="#455A64"/>
<g opacity="0.3">
<path d="M84.7279 72.7399L86.0301 74.5381C86.0301 74.5381 85.6642 101.784 84.2815 108.549L84.7279 72.7399Z" fill="black"/>
</g>
<path d="M58.3379 68.1886C58.4744 68.402 58.6392 68.596 58.8277 68.7653C59.1626 69.1187 59.6524 69.6209 60.2663 70.241C61.5064 71.4811 63.1992 73.1491 65.109 74.9845L66.3491 76.2247L66.56 76.4293L66.6592 76.1564C67.2792 74.4327 67.8993 72.8701 68.3457 71.5804L68.1163 71.63L69.7285 73.0809C69.9141 73.2692 70.1224 73.4337 70.3486 73.5708C70.2009 73.3418 70.0237 73.1333 69.8215 72.9507C69.4681 72.5849 68.9472 72.0578 68.2961 71.4129L68.1473 71.2641L68.0667 71.4625C67.5707 72.7461 66.963 74.2962 66.2933 76.0076L66.6034 75.9394L65.3632 74.6993C63.4534 72.8391 61.711 71.2145 60.4337 70.0364C59.8136 69.4163 59.2804 68.9699 58.9146 68.6536C58.7432 68.4744 58.5494 68.3181 58.3379 68.1886Z" fill="#263238"/>
<path d="M72.9653 72.9941C73.418 72.2008 73.8038 71.3712 74.1187 70.5138L73.8644 70.5572C74.7905 71.7644 75.5536 73.0882 76.1339 74.4947C76.2393 74.7365 76.3261 74.9783 76.4129 75.2077L76.6237 75.7782L76.7849 75.1953C77.1979 73.6762 77.4248 72.1125 77.4608 70.5386C77.508 69.8994 77.4662 69.2567 77.3368 68.6288C77.2581 69.2585 77.2125 69.8918 77.2004 70.5262C77.0864 72.0698 76.8205 73.5985 76.4067 75.0899H76.7787C76.6919 74.8543 76.5989 74.6063 76.4935 74.3582C75.9015 72.9179 75.0945 71.5757 74.1001 70.3774L73.9326 70.179L73.8396 70.4146C73.4793 71.2495 73.1869 72.1122 72.9653 72.9941Z" fill="#263238"/>
<path d="M74.3729 74.5691L72.829 76.8447H70.5099L69.2698 74.5691L70.4541 72.0702L72.4755 71.785L74.3729 74.5691Z" fill="#8C2F41"/>
<path d="M72.9157 75.6852L79.91 128.496L73.9326 136.6L67.949 128.006L70.5967 75.6852H72.9157Z" fill="#8C2F41"/>
<path d="M86.5322 133.103C86.5234 133.493 86.5483 133.883 86.6067 134.269C86.6997 135.087 86.8175 136.129 86.9601 137.425C87.1027 138.721 87.3197 140.364 87.5368 142.107C87.8097 144.025 88.2814 145.91 88.9443 147.731C89.6698 149.634 90.6123 151.507 92.2182 152.499C92.9766 152.919 93.8318 153.133 94.6985 153.119C95.4385 153.125 96.1774 153.062 96.9059 152.933C97.9575 152.759 98.994 152.504 100.006 152.17C100.385 152.068 100.751 151.925 101.098 151.742C100.714 151.814 100.335 151.91 99.9629 152.028C98.9422 152.294 97.9071 152.501 96.8625 152.648C96.1486 152.756 95.4266 152.801 94.7047 152.784C93.8921 152.795 93.0907 152.594 92.3795 152.201C90.9223 151.29 89.986 149.473 89.2791 147.6C87.8344 143.787 87.6422 140.042 87.2019 137.4C87.0097 136.123 86.8485 135.069 86.7245 134.257C86.6922 133.868 86.6279 133.482 86.5322 133.103Z" fill="#455A64"/>
<path d="M60.8368 134.653C60.8348 134.771 60.816 134.888 60.781 135.001L60.5392 135.993C60.3284 136.848 59.9935 138.082 59.5595 139.602C58.4538 143.565 57.1141 147.46 55.5477 151.265C55.0881 152.352 54.56 153.408 53.9665 154.427C53.682 154.918 53.3519 155.381 52.9806 155.81L52.6892 156.108C52.5776 156.201 52.4597 156.281 52.3481 156.368C52.2252 156.448 52.0943 156.514 51.9575 156.567C51.8273 156.61 51.6909 156.622 51.5606 156.653C50.5593 156.802 49.5376 156.732 48.5657 156.449C47.7175 156.228 46.8881 155.939 46.0855 155.587C44.9409 155.088 43.8325 154.51 42.7681 153.857C42.3899 153.627 42.0984 153.435 41.9124 153.305C41.8092 153.244 41.7134 153.171 41.6272 153.088C41.739 153.128 41.8453 153.182 41.9434 153.249L42.8301 153.745C43.9129 154.353 45.0286 154.899 46.1723 155.382C46.962 155.709 47.7743 155.979 48.6029 156.188C49.5347 156.449 50.5112 156.508 51.4676 156.362C51.965 156.28 52.4104 156.006 52.7078 155.599C53.0644 155.183 53.382 154.735 53.6565 154.26C54.2375 153.26 54.7552 152.224 55.2066 151.16C56.7674 147.365 58.1333 143.492 59.2991 139.558C59.7455 138.082 60.1113 136.873 60.378 135.98C60.4979 135.592 60.5971 135.269 60.6756 135.013C60.7159 134.888 60.77 134.767 60.8368 134.653Z" fill="#455A64"/>
<path d="M48.5719 71.7168C48.5719 71.7168 38.9795 73.8684 37.7579 82.1153C36.3504 91.6085 35.1165 113.336 35.1165 113.336L51.5606 91.3171" fill="#263238"/>
<path d="M45.5151 73.608C45.5151 73.608 45.9368 73.9862 46.5693 74.6373C48.2233 76.3424 49.3698 78.4745 49.8804 80.7945C50.0726 81.6812 50.116 82.2455 50.1532 82.2455C50.1752 82.112 50.1752 81.9759 50.1532 81.8424C50.1353 81.4802 50.0918 81.1196 50.023 80.7635C49.5876 78.3867 48.4164 76.2068 46.6747 74.5319C46.4136 74.2782 46.136 74.042 45.8438 73.825C45.7442 73.7386 45.6337 73.6656 45.5151 73.608Z" fill="#263238"/>
<path d="M94.6057 78.4321C94.5003 78.4321 94.1655 86.1023 93.8679 95.5707C93.5702 105.039 93.409 112.715 93.5206 112.715C93.6322 112.715 93.9547 105.051 94.2585 95.5831C94.5623 86.1147 94.7111 78.4383 94.6057 78.4321Z" fill="#455A64"/>
<path d="M43.878 74.0421C43.878 74.0421 39.4135 77.0556 38.9175 79.4924C38.4958 81.4642 34.9677 111.116 34.515 114.799C34.0624 118.482 32.3076 126.159 36.8092 129.215C39.8352 131.268 49.3966 133.327 49.3966 133.327C48.4541 128.918 50.3825 125.694 55.0888 123.25L48.6959 117.217L51.5606 91.3171L43.878 74.0421Z" fill="#263238"/>
<path d="M50.4385 117.781C50.3269 117.781 48.7643 109.721 46.9475 99.7437C45.1307 89.7669 43.7418 81.6378 43.8472 81.6378C43.9526 81.6378 45.5214 89.6987 47.3443 99.6755C49.1673 109.652 50.5439 117.757 50.4385 117.781Z" fill="#455A64"/>
<path d="M49.2044 111.841C49.2361 112.354 49.2216 112.869 49.161 113.379C49.099 114.34 48.9874 115.686 48.851 117.236L48.8076 117.106L50.0477 118.259C51.4677 119.604 52.7388 120.838 53.6503 121.744C54.1654 122.207 54.6424 122.711 55.0765 123.25C54.5151 122.844 53.9864 122.394 53.4953 121.905C52.5404 121.049 51.2445 119.84 49.8245 118.495L48.5844 117.335L48.5286 117.279V117.205C48.6836 115.661 48.8262 114.315 48.944 113.36C48.9838 112.847 49.071 112.339 49.2044 111.841Z" fill="#455A64"/>
<path d="M42.3093 121.043C42.9644 119.954 43.9146 119.072 45.05 118.501C46.1317 117.834 47.3821 117.492 48.6526 117.515C47.4611 117.799 46.3048 118.215 45.205 118.755C44.1595 119.41 43.1885 120.177 42.3093 121.043Z" fill="#455A64"/>
<path d="M64.0425 95.6017C64.0086 96.1727 63.8621 96.7312 63.6116 97.2454C63.3611 97.7595 63.0115 98.2191 62.5828 98.5977C62.1541 98.9762 61.6548 99.2663 61.1136 99.4513C60.5724 99.6363 60 99.7125 59.4292 99.6756C58.8323 99.6447 58.2483 99.4898 57.7145 99.2208C57.1807 98.9518 56.7088 98.5745 56.3289 98.113C55.1322 96.6372 52.9682 94.529 50.2771 94.3926C46.1102 94.1322 42.9913 97.2883 42.6937 102.013C42.396 106.738 45.1057 110.254 49.2788 110.514C51.9698 110.682 54.3757 108.859 55.746 107.544C56.1764 107.135 56.6867 106.82 57.2448 106.619C57.8029 106.417 58.3968 106.333 58.989 106.372C59.5599 106.406 60.1185 106.553 60.6326 106.803C61.1468 107.054 61.6063 107.403 61.9849 107.832C62.3635 108.261 62.6536 108.76 62.8386 109.301C63.0236 109.842 63.0998 110.415 63.0628 110.986L61.2026 140.463L126.799 143.254L128.219 112.25C128.253 111.68 128.4 111.121 128.65 110.607C128.901 110.093 129.25 109.633 129.679 109.255C130.108 108.876 130.607 108.586 131.148 108.401C131.689 108.216 132.262 108.14 132.833 108.177C133.43 108.207 134.014 108.362 134.547 108.631C135.081 108.9 135.553 109.278 135.933 109.739C137.13 111.215 139.294 113.323 141.985 113.491C146.152 113.751 149.277 110.595 149.568 105.87C149.86 101.145 147.156 97.6293 142.989 97.3689C140.298 97.2015 137.886 99.0245 136.516 100.339C136.086 100.748 135.576 101.064 135.017 101.266C134.459 101.467 133.865 101.551 133.273 101.511C130.873 101.362 128.641 99.5453 128.79 97.1705L129.906 70.8549L64.9478 68.0894L64.0425 95.6017Z" fill="#8C2F41"/>
<path d="M56.0438 125.396C56.0438 125.396 57.9784 123.895 59.4169 123.833C60.8555 123.771 62.7281 124.336 63.1001 124.149C63.4722 123.963 64.3402 123.139 64.9107 123.827C65.4812 124.515 66.1508 127.02 63.1621 127.709H61.1035C61.2089 128.698 61.4618 129.665 61.8538 130.58C62.3498 131.392 69.3442 140.197 69.3442 140.197C69.3442 140.197 70.2185 141.071 69.7844 141.945C69.3504 142.82 67.4716 142.317 67.4716 142.317C67.0942 142.65 66.6385 142.882 66.1472 142.99C65.6559 143.099 65.1451 143.08 64.6627 142.937C63.9196 142.688 63.2079 142.353 62.5421 141.939C62.0581 142.31 61.4653 142.511 60.8555 142.511C60.2456 142.511 59.6528 142.31 59.1689 141.939C57.4203 140.631 50.4446 132.018 50.4446 132.018L53.6689 125.129L56.0438 125.396Z" fill="#FFBF9D"/>
<path d="M54.0906 123.802L56.0749 125.383C53.1295 127.529 51.598 130.158 51.6166 133.314L49.0805 131.559C49.0805 131.559 48.6217 125.086 54.0906 123.802Z" fill="#F5F5F5"/>
<path d="M62.0708 136.6C62.1514 136.538 63.1993 137.94 64.6937 139.471C66.188 141.003 67.5894 142.063 67.5212 142.15C67.1703 141.991 66.8445 141.783 66.5539 141.53C65.8131 140.975 65.1147 140.366 64.4643 139.707C63.8181 139.045 63.2212 138.336 62.6785 137.586C62.4257 137.291 62.2206 136.959 62.0708 136.6Z" fill="#FF9A6C"/>
<path d="M58.6045 138.349C58.6851 138.281 59.4602 139.217 60.6073 140.141C61.3625 140.648 62.0287 141.277 62.5791 142.001C61.8156 141.518 61.0901 140.977 60.4089 140.383C59.6659 139.845 59.0499 139.151 58.6045 138.349Z" fill="#FF9A6C"/>
<path d="M126.334 84.2607C126.334 84.2607 126.644 82.1401 131.103 82.8593C133.899 83.312 132.436 85.1226 132.436 85.1226C132.645 85.3031 132.807 85.5316 132.908 85.7885C133.009 86.0454 133.046 86.323 133.016 86.5975C132.986 86.8719 132.89 87.135 132.736 87.3641C132.582 87.5933 132.375 87.7816 132.132 87.9129L132.423 88.1299C132.423 88.1299 134.649 89.246 132.727 91.2302C132.922 91.5837 133.002 91.9889 132.957 92.3899C132.911 92.7909 132.742 93.1679 132.473 93.4687C131.518 94.4298 129.118 93.1524 129.118 93.1524C129.118 93.1524 125.727 93.0966 125.534 92.1975C125.475 91.9246 125.509 91.6396 125.632 91.3886C125.755 91.1376 125.958 90.9355 126.21 90.8148C126.991 90.6699 127.78 90.5746 128.573 90.5295C128.573 90.5295 125.609 90.4985 125.342 89.9095C124.865 88.874 124.989 87.8136 128.573 87.9501C128.573 87.9501 125.907 87.8943 125.603 87.33C125.299 86.7657 125.671 85.91 126.632 85.4698C127.198 85.1989 127.822 85.0691 128.449 85.0916C128.449 85.0916 125.956 85.6 126.334 84.2607Z" fill="#FFBF9D"/>
<path d="M132.299 85.135C131.499 85.2296 130.692 85.2586 129.887 85.2218C129.084 85.2807 128.278 85.2807 127.475 85.2218C128.248 84.9552 129.065 84.8374 129.881 84.8746C130.696 84.8112 131.516 84.8995 132.299 85.135Z" fill="#FF9A6C"/>
<path d="M132.182 88.0183C131.424 88.0792 130.663 88.0792 129.906 88.0183C129.147 88.0624 128.386 88.0459 127.63 87.9687C128.366 87.7282 129.141 87.6355 129.912 87.6959C130.683 87.6473 131.455 87.757 132.182 88.0183Z" fill="#FF9A6C"/>
<path d="M132.783 91.379C132.746 91.4659 131.735 91.0256 130.414 90.8148C129.094 90.604 128.002 90.6846 127.99 90.5854C128.795 90.34 129.649 90.3079 130.47 90.4923C131.306 90.5776 132.104 90.8836 132.783 91.379Z" fill="#FF9A6C"/>
</svg>
