<svg width="46" height="30" viewBox="0 0 46 30" fill="none" xmlns="http://www.w3.org/2000/svg">
<path d="M23.25 21.9375C24.7418 21.9375 26.1726 21.3449 27.2275 20.29C28.2824 19.2351 28.875 17.8043 28.875 16.3125C28.875 14.8207 28.2824 13.3899 27.2275 12.335C26.1726 11.2801 24.7418 10.6875 23.25 10.6875C21.7582 10.6875 20.3274 11.2801 19.2725 12.335C18.2176 13.3899 17.625 14.8207 17.625 16.3125C17.625 17.8043 18.2176 19.2351 19.2725 20.29C20.3274 21.3449 21.7582 21.9375 23.25 21.9375Z" fill="#F0F0F0"/>
<path d="M0.75 3.75C0.75 3.00408 1.04632 2.28871 1.57376 1.76126C2.10121 1.23382 2.81658 0.9375 3.5625 0.9375H42.9375C43.6834 0.9375 44.3988 1.23382 44.9262 1.76126C45.4537 2.28871 45.75 3.00408 45.75 3.75V26.25C45.75 26.9959 45.4537 27.7113 44.9262 28.2387C44.3988 28.7662 43.6834 29.0625 42.9375 29.0625H3.5625C2.81658 29.0625 2.10121 28.7662 1.57376 28.2387C1.04632 27.7113 0.75 26.9959 0.75 26.25V3.75ZM9.1875 3.75C9.1875 5.24184 8.59487 6.67258 7.53998 7.72748C6.48508 8.78237 5.05434 9.375 3.5625 9.375V20.625C5.05434 20.625 6.48508 21.2176 7.53998 22.2725C8.59487 23.3274 9.1875 24.7582 9.1875 26.25H37.3125C37.3125 24.7582 37.9051 23.3274 38.96 22.2725C40.0149 21.2176 41.4457 20.625 42.9375 20.625V9.375C41.4457 9.375 40.0149 8.78237 38.96 7.72748C37.9051 6.67258 37.3125 5.24184 37.3125 3.75H9.1875Z" fill="#F0F0F0"/>
</svg>
