<svg width="40" height="48" viewBox="0 0 40 48" fill="none" xmlns="http://www.w3.org/2000/svg">
<path d="M20 26.25C23.7279 26.25 26.75 23.2279 26.75 19.5C26.75 15.7721 23.7279 12.75 20 12.75C16.2721 12.75 13.25 15.7721 13.25 19.5C13.25 23.2279 16.2721 26.25 20 26.25Z" stroke="white" stroke-width="3" stroke-linecap="round" stroke-linejoin="round"/>
<path d="M20 1.5C15.2261 1.5 10.6477 3.39642 7.27208 6.77208C3.89642 10.1477 2 14.7261 2 19.5C2 23.757 2.9045 26.5425 5.375 29.625L20 46.5L34.625 29.625C37.0955 26.5425 38 23.757 38 19.5C38 14.7261 36.1036 10.1477 32.7279 6.77208C29.3523 3.39642 24.7739 1.5 20 1.5V1.5Z" stroke="white" stroke-width="3" stroke-linecap="round" stroke-linejoin="round"/>
</svg>
