<svg width="30" height="36" viewBox="0 0 30 36" fill="none" xmlns="http://www.w3.org/2000/svg">
<path d="M28.125 35.194H1.875C1.37772 35.194 0.900805 34.9965 0.549175 34.6448C0.197544 34.2932 0 33.8163 0 33.319V15.2384C0.0288765 14.7789 0.22418 14.3456 0.549375 14.0196L13.6744 0.894639C13.8485 0.720308 14.0553 0.58201 14.2829 0.487652C14.5105 0.393294 14.7545 0.344727 15.0009 0.344727C15.2473 0.344727 15.4913 0.393294 15.7189 0.487652C15.9466 0.58201 16.1534 0.720308 16.3275 0.894639L29.4525 14.0196C29.6268 14.1935 29.7649 14.4002 29.8589 14.6277C29.9528 14.8552 30.0008 15.0991 30 15.3453V33.319C30 33.8163 29.8024 34.2932 29.4508 34.6448C29.0992 34.9965 28.6223 35.194 28.125 35.194ZM15 4.87152L3.75 16.1215V31.444H26.25V16.1215L15 4.87152ZM16.875 27.6921H13.125V22.0671H7.5V18.3171H13.125V12.6921H16.875V18.3171H22.5V22.0671H16.875V27.6921Z" fill="white"/>
</svg>
