<svg width="46" height="46" viewBox="0 0 46 46" fill="none" xmlns="http://www.w3.org/2000/svg">
<path d="M13.7463 36.4963C11.272 36.4963 9.27002 38.5207 9.27002 40.9951C9.27002 43.4694 11.272 45.4938 13.7463 45.4938C16.2206 45.4938 18.245 43.4694 18.245 40.9951C18.245 38.5207 16.2206 36.4963 13.7463 36.4963ZM36.2401 36.4963C33.7658 36.4963 31.7638 38.5207 31.7638 40.9951C31.7638 43.4694 33.7658 45.4938 36.2401 45.4938C38.7144 45.4938 40.7388 43.4694 40.7388 40.9951C40.7388 38.5207 38.7144 36.4963 36.2401 36.4963ZM32.9785 25.2494C34.6655 25.2494 36.1501 24.3271 36.9149 22.9325L44.9677 8.33404C45.1573 7.99309 45.2545 7.60855 45.2498 7.21847C45.2452 6.82839 45.1387 6.4463 44.941 6.10999C44.7433 5.77369 44.4612 5.49483 44.1227 5.30102C43.7841 5.1072 43.4008 5.00515 43.0107 5.00496H9.71989L7.60547 0.506195H0.25V5.00496H4.74876L12.8465 22.0778L9.80987 27.5663C8.16782 30.5804 10.3272 34.2469 13.7463 34.2469H40.7388V29.7482H13.7463L16.2206 25.2494H32.9785ZM11.8568 9.50372H39.1868L32.9785 20.7506H17.1878L11.8568 9.50372Z" fill="#F0F0F0"/>
</svg>
